<svg xmlns="http://www.w3.org/2000/svg" width="50" height="50" viewBox="0 0 50 50">
  <path d="M8 3.0098c-3.47 0-5.9902 2.0794-5.9902 4.9394 0 2.87 2.5802 5.041 5.9902 5.041 3.47 0 5.9902-2.1196 5.9902-5.0996-.16-2.87-2.6302-4.8808-5.9902-4.8808zM3 15c-.55 0-1 .45-1 1v29c0 .55.45 1 1 1h10c.55 0 1-.45 1-1V16c0-.55-.45-1-1-1H3zm15 0c-.55 0-1 .45-1 1v29c0 .55.45 1 1 1h9c.552 0 1-.448 1-1V29.5c0-2.37 1.8206-4.3005 4.1406-4.4805.12-.02.2394-.0195.3594-.0195s.2394-.0005.3594.0195C35.1794 25.1995 37 27.13 37 29.5V45c0 .552.448 1 1 1h9c.55 0 1-.45 1-1V28c0-6.47-3.471-13-11.211-13-3.52 0-6.179 1.3602-7.789 2.4902V16c0-.55-.45-1-1-1H18z"/>
</svg>
