<svg xmlns="http://www.w3.org/2000/svg" width="50" height="50" viewBox="0 0 50 50">
  <path d="M18 41.5781C18 42.4688 17.5234 43 16.8477 43c-.2383 0-.504-.0664-.7852-.207L5.1641 37.2734C4.5234 36.9492 4 36.0898 4 35.3672V8.3125c0-.7148.379-1.1367.9219-1.1367.1914 0 .4062.0508.6289.164l.3828.1954h.0039l12.0117 6.082c.0195.0117.0352.0312.0508.0469zM30.586 8.8828l.7343-1.207C31.582 7.246 32.0625 7 32.5508 7c.1133 0 .2304.0156.3437.0469.086.0195.1758.0508.2696.0976l12.668 6.414c.0038 0 .0038.004.0038.004l.0118.004c.0078.0038.0078.0155.0156.0194.0625.0508.0898.1368.0469.207L33.293 34.5587l-1.289 2.1172-8.3595-16.3711zM20 30.6055v-13.043l8.9805 17.5938-8.0782-4.0899zM46 41.578c0 .836-.496 1.3125-1.2266 1.3125-.328 0-.703-.0937-1.0976-.293l-1.8086-.918-8.0781-4.0898L46 17.4961z"/>
</svg>
