<svg xmlns="http://www.w3.org/2000/svg" width="50" height="50" viewBox="0 0 50 50">
  <path d="M50.0625 10.4375c-1.8477.8203-3.8281 1.371-5.9102 1.621 2.125-1.2733 3.7579-3.289 4.5235-5.6874a20.6477 20.6477 0 0 1-6.5313 2.4922c-1.875-2-4.5468-3.2461-7.5039-3.2461-5.6797 0-10.2851 4.6015-10.2851 10.2812 0 .8047.0937 1.5899.2695 2.3438-8.5469-.4297-16.121-4.5235-21.1953-10.7461C2.543 9.0195 2.039 10.785 2.039 12.668c0 3.5664 1.8125 6.7148 4.5742 8.5625-1.6875-.0547-3.2735-.5196-4.6602-1.289v.1288c0 4.9844 3.5469 9.1367 8.2461 10.086-.8594.2343-1.7695.3593-2.707.3593-.664 0-1.3086-.0625-1.9375-.1875 1.3125 4.082 5.1094 7.0625 9.6055 7.1446-3.5157 2.7578-7.9493 4.3984-12.7696 4.3984-.832 0-1.6484-.0469-2.4492-.1445 4.5469 2.9218 9.9531 4.621 15.7617 4.621 18.914 0 29.2578-15.668 29.2578-29.2538 0-.4454-.0117-.8946-.0273-1.332 2.0078-1.4493 3.75-3.2618 5.1289-5.3243z"/>
</svg>
