<?xml version="1.0" standalone="no"?>
<!DOCTYPE svg PUBLIC "-//W3C//DTD SVG 20010904//EN"
 "http://www.w3.org/TR/2001/REC-SVG-20010904/DTD/svg10.dtd">
<svg version="1.0" xmlns="http://www.w3.org/2000/svg"
 width="992.000000pt" height="992.000000pt" viewBox="0 0 992.000000 992.000000"
 preserveAspectRatio="xMidYMid meet">
<metadata>
Created by potrace 1.11, written by Peter Selinger 2001-2013
</metadata>
<g transform="translate(0.000000,992.000000) scale(0.100000,-0.100000)"
fill="#000000" stroke="none">
<path d="M5070 8656 c7 -7 13 -7 20 0 6 6 3 10 -10 10 -13 0 -16 -4 -10 -10z"/>
<path d="M5190 8656 c7 -7 13 -7 20 0 6 6 3 10 -10 10 -13 0 -16 -4 -10 -10z"/>
<path d="M5310 8656 c7 -7 13 -7 20 0 6 6 3 10 -10 10 -13 0 -16 -4 -10 -10z"/>
<path d="M5430 8656 c7 -7 13 -7 20 0 6 6 3 10 -10 10 -13 0 -16 -4 -10 -10z"/>
<path d="M5550 8656 c7 -7 13 -7 20 0 6 6 3 10 -10 10 -13 0 -16 -4 -10 -10z"/>
<path d="M5670 8656 c7 -7 13 -7 20 0 6 6 3 10 -10 10 -13 0 -16 -4 -10 -10z"/>
<path d="M5790 8656 c7 -7 13 -7 20 0 6 6 3 10 -10 10 -13 0 -16 -4 -10 -10z"/>
<path d="M5910 8656 c7 -7 13 -7 20 0 6 6 3 10 -10 10 -13 0 -16 -4 -10 -10z"/>
<path d="M6030 8656 c7 -7 13 -7 20 0 6 6 3 10 -10 10 -13 0 -16 -4 -10 -10z"/>
<path d="M6150 8656 c7 -7 13 -7 20 0 6 6 3 10 -10 10 -13 0 -16 -4 -10 -10z"/>
<path d="M4960 8642 c0 -6 -7 -9 -16 -8 -11 0 -18 -7 -19 -21 -1 -13 3 -20 9
-16 6 3 5 0 -1 -8 -18 -19 -16 -29 5 -23 16 5 16 5 0 -5 -13 -9 -16 -24 -14
-72 1 -33 -2 -62 -6 -65 -5 -3 -5 -10 -2 -16 4 -6 -1 -8 -13 -4 -18 6 -19 1
-18 -66 2 -78 -2 -101 -15 -93 -5 3 -12 0 -16 -6 -4 -7 -3 -9 3 -6 17 11 32
-16 22 -40 -6 -16 -14 -21 -26 -17 -14 5 -15 4 -4 -4 8 -6 19 -9 25 -8 6 2 8
1 3 -1 -4 -3 -5 -9 -2 -13 3 -5 0 -12 -6 -16 -8 -4 -9 -3 -5 4 4 7 1 12 -7 12
-12 0 -13 -7 -7 -35 4 -19 4 -32 -1 -30 -4 3 -6 -8 -4 -25 2 -17 -1 -30 -7
-30 -6 0 -6 -6 2 -15 10 -12 10 -15 -1 -15 -11 0 -11 -2 1 -10 13 -8 12 -10
-4 -10 -20 0 -20 0 0 -15 10 -8 15 -15 9 -15 -5 0 -11 -11 -11 -25 -1 -15 2
-22 9 -18 6 3 7 1 3 -6 -11 -17 -29 -2 -23 20 3 11 1 19 -4 19 -13 0 -11 -44
4 -59 10 -10 9 -11 -3 -6 -13 4 -15 -8 -16 -77 0 -76 -2 -83 -20 -80 -16 3
-16 1 4 -13 16 -12 20 -21 14 -27 -6 -6 -8 -18 -5 -27 4 -9 3 -13 -2 -9 -4 4
-8 17 -9 28 0 11 -5 19 -10 18 -5 -2 -10 -31 -10 -65 -1 -34 -4 -64 -8 -68 -4
-4 -3 -17 2 -30 7 -18 4 -27 -11 -41 -11 -10 -18 -26 -16 -36 3 -10 2 -18 -1
-18 -4 0 -7 -13 -8 -29 -1 -23 3 -28 15 -24 14 5 14 4 0 -8 -10 -9 -16 -27
-15 -49 1 -19 -5 -43 -13 -53 -13 -16 -13 -17 2 -11 15 5 16 3 7 -20 -7 -18
-6 -26 1 -26 8 0 7 -5 -1 -15 -7 -8 -18 -15 -24 -15 -6 0 -4 5 4 11 12 8 12
12 2 16 -10 4 -10 8 0 21 11 15 11 15 -2 5 -11 -8 -15 -30 -14 -80 0 -38 -4
-71 -10 -75 -7 -5 -7 -8 -1 -8 11 0 12 -80 1 -98 -3 -6 -12 -9 -19 -6 -9 3
-12 -25 -14 -108 -2 -129 -5 -151 -22 -154 -6 -1 -7 0 -1 3 11 5 4 23 -10 23
-10 0 -8 -19 3 -37 5 -7 5 -13 0 -13 -4 0 -9 -26 -9 -58 -1 -31 -5 -66 -9 -76
-6 -14 -5 -17 4 -11 10 6 11 3 2 -12 -6 -11 -7 -23 -4 -27 15 -14 10 -32 -9
-33 -20 -2 -20 -1 -2 12 11 8 14 15 7 15 -20 0 -27 -23 -28 -95 0 -38 -4 -76
-9 -84 -7 -10 -5 -12 5 -6 11 6 12 5 2 -6 -16 -16 -17 -33 -1 -23 7 5 8 3 3
-7 -5 -7 -9 -26 -10 -41 -2 -34 -10 -44 -19 -23 -3 9 -2 14 3 10 5 -3 8 3 7
12 -2 9 -7 18 -12 20 -5 2 -9 -28 -8 -67 2 -50 -1 -68 -9 -63 -9 5 -9 3 -2 -8
6 -8 10 -21 9 -29 -1 -8 -2 -21 -3 -28 0 -7 -5 -10 -11 -7 -15 9 -12 -2 6 -19
8 -9 11 -16 5 -16 -7 0 -9 -11 -7 -25 3 -13 1 -27 -4 -30 -5 -3 -7 4 -5 15 2
11 -1 20 -8 20 -7 0 -12 -15 -12 -34 -1 -30 2 -33 15 -23 13 11 13 10 0 -7 -9
-11 -15 -41 -16 -72 0 -58 -10 -77 -24 -54 -7 11 -9 9 -7 -8 1 -13 6 -21 14
-18 7 3 15 1 18 -4 4 -6 1 -10 -5 -10 -6 0 -18 -6 -26 -14 -11 -11 -11 -16 -1
-19 9 -4 9 -6 0 -6 -7 -1 -13 -6 -13 -12 0 -5 4 -8 9 -4 6 3 7 -6 2 -22 -4
-16 -6 -34 -3 -42 3 -9 0 -11 -8 -6 -9 6 -11 4 -5 -5 12 -20 10 -75 -3 -73 -6
2 -9 -4 -6 -12 4 -8 11 -12 16 -9 6 4 5 -3 -1 -15 -7 -11 -17 -21 -24 -21 -7
0 -6 4 3 10 12 8 13 11 2 22 -8 7 -13 9 -12 3 2 -5 1 -12 0 -15 -1 -3 -4 -54
-6 -115 -6 -154 -5 -150 -21 -129 -12 16 -13 16 -13 1 0 -9 10 -23 23 -32 13
-10 16 -16 7 -14 -31 3 -36 -2 -35 -33 1 -18 -1 -37 -4 -43 -9 -16 -7 -39 4
-47 6 -4 1 -8 -9 -8 -20 0 -20 0 0 -16 19 -15 19 -15 -2 -11 -13 3 -21 -1 -21
-10 0 -8 6 -12 12 -9 9 3 12 -7 12 -29 -1 -33 -12 -40 -12 -8 0 9 -5 18 -10
20 -12 4 -13 -37 -1 -55 4 -7 3 -12 -1 -12 -5 0 -9 -27 -8 -61 0 -44 -4 -63
-15 -70 -11 -6 -11 -8 -2 -9 7 0 10 -4 7 -10 -3 -5 -1 -10 6 -10 8 0 8 -4 2
-12 -6 -7 -9 -21 -8 -30 2 -10 0 -17 -3 -17 -22 3 -27 -6 -26 -46 1 -25 -3
-45 -8 -45 -5 0 -7 -4 -4 -8 10 -17 14 -62 6 -62 -11 0 -8 -53 3 -61 5 -3 2
-9 -5 -12 -11 -4 -14 5 -13 38 0 24 -3 41 -8 38 -4 -3 -6 -11 -3 -18 2 -7 2
-16 -1 -19 -4 -3 -7 -39 -8 -79 0 -39 -4 -78 -8 -84 -5 -8 -3 -13 3 -13 6 0 8
-5 5 -10 -4 -6 -11 -8 -16 -5 -14 9 -11 -2 7 -19 8 -9 11 -16 6 -16 -6 0 -9
-10 -8 -23 2 -14 -2 -24 -10 -24 -7 0 -11 4 -8 9 10 16 13 48 4 53 -5 3 -7 -4
-5 -15 2 -11 0 -20 -4 -20 -11 0 -8 -94 4 -102 7 -5 7 -8 -1 -8 -5 0 -10 -15
-9 -32 1 -18 -3 -41 -8 -52 -6 -13 -5 -21 4 -27 8 -5 10 -9 5 -9 -5 0 -19 8
-30 17 -19 17 -20 17 -7 1 8 -11 10 -25 6 -35 -5 -10 -9 -43 -9 -73 -1 -30 -5
-61 -9 -67 -5 -8 -3 -13 5 -13 10 0 10 -2 -1 -9 -9 -6 -10 -11 -2 -15 6 -4 8
-13 4 -19 -11 -17 -10 -51 0 -58 5 -3 2 -9 -6 -12 -9 -3 -14 1 -14 11 0 31 -3
42 -11 42 -4 0 -7 -19 -6 -42 1 -29 6 -42 15 -40 9 2 9 -1 -1 -13 -8 -9 -14
-29 -15 -44 -1 -15 -5 -32 -9 -39 -4 -7 -2 -12 5 -12 7 0 9 -3 5 -8 -4 -4 -12
-7 -18 -7 -12 0 -15 -14 -21 -87 -3 -30 0 -45 6 -41 6 4 7 1 1 -8 -5 -8 -9
-36 -9 -64 0 -27 -3 -54 -6 -60 -3 -5 -5 -22 -4 -37 0 -15 -3 -24 -7 -21 -5 2
-6 13 -3 22 3 11 0 18 -7 18 -10 0 -14 -30 -16 -111 -3 -141 -4 -156 -14 -150
-5 3 -6 9 -3 14 3 4 -2 11 -10 14 -13 5 -13 2 0 -25 9 -17 21 -27 27 -23 7 5
8 3 4 -5 -6 -9 -12 -8 -26 4 -19 17 -23 4 -7 -22 4 -6 3 -15 -3 -18 -8 -5 -8
-11 -1 -19 6 -7 8 -16 4 -20 -4 -3 -8 -16 -10 -28 -2 -12 -8 -28 -15 -35 -8
-10 -8 -12 4 -8 11 4 14 -3 12 -33 -1 -21 -7 -47 -13 -58 -11 -18 -12 -18 -6
3 3 12 1 24 -5 28 -6 4 -10 -4 -10 -19 0 -38 1 -41 12 -38 5 1 7 -2 3 -8 -3
-6 -10 -8 -14 -5 -5 2 -7 -15 -6 -38 1 -23 -3 -48 -8 -55 -6 -8 -5 -12 3 -12
9 0 10 -3 1 -13 -7 -10 -7 -17 0 -24 8 -8 8 -13 0 -17 -6 -4 -11 -12 -11 -17
0 -6 5 -7 11 -3 6 3 3 -5 -6 -20 -10 -14 -22 -26 -27 -26 -6 0 -6 -6 1 -14 7
-8 8 -17 3 -20 -4 -2 -8 -30 -7 -61 0 -31 -3 -59 -7 -61 -5 -3 -5 -10 -2 -16
4 -6 2 -8 -4 -4 -10 6 -14 -7 -27 -72 -4 -21 -2 -22 13 -10 15 12 16 11 3 -5
-8 -11 -16 -38 -16 -61 -1 -24 -5 -48 -9 -54 -3 -6 -2 -13 4 -17 12 -7 4 -25
-12 -25 -5 0 -8 6 -5 13 3 8 2 19 -2 26 -5 7 -8 0 -9 -18 0 -17 4 -31 10 -31
5 0 8 -6 5 -14 -3 -8 -1 -17 6 -20 7 -3 3 -4 -8 -1 -19 4 -20 -1 -21 -83 -1
-48 -5 -96 -9 -106 -6 -14 -5 -17 4 -11 10 6 11 3 3 -11 -5 -11 -12 -26 -16
-34 -3 -8 -4 -3 -1 12 3 15 1 29 -4 32 -13 8 -19 -52 -7 -65 8 -9 8 -10 0 -6
-7 4 -10 -15 -10 -59 1 -54 -1 -63 -14 -59 -11 5 -12 3 -3 -6 6 -6 9 -18 6
-27 -5 -11 -3 -13 8 -7 12 8 12 6 1 -8 -8 -9 -10 -22 -6 -29 6 -9 3 -9 -10 1
-12 10 -14 16 -5 21 8 6 8 9 0 14 -6 4 -8 13 -5 19 4 7 3 9 -1 4 -5 -4 -9 -58
-10 -120 -1 -78 -5 -111 -13 -110 -6 2 -9 -4 -6 -12 4 -8 11 -12 18 -8 7 4 7
2 -1 -7 -8 -9 -9 -19 -3 -31 7 -11 7 -20 0 -24 -5 -3 -10 -5 -11 -3 0 2 -2 16
-4 32 -2 16 -8 33 -12 37 -11 11 -10 -63 1 -80 6 -9 5 -12 -2 -7 -11 7 -15
-62 -6 -97 5 -16 7 -16 21 -1 15 14 17 14 25 -1 6 -10 14 -13 21 -8 7 5 26 9
42 8 17 -1 33 4 37 9 5 7 8 4 8 -6 0 -9 4 -20 10 -23 5 -3 7 0 5 7 -4 9 3 14
19 16 20 1 24 -2 21 -18 -2 -12 0 -18 6 -15 5 4 7 10 4 15 -3 5 0 12 6 16 6 3
15 1 19 -6 5 -8 9 -7 14 6 6 16 8 15 28 -2 12 -11 19 -14 15 -9 -10 18 86 12
101 -5 11 -13 11 -13 7 1 -5 14 3 16 52 14 32 -1 70 2 85 6 15 4 30 4 32 0 6
-9 134 -6 143 3 4 3 18 -4 32 -16 14 -13 19 -15 12 -6 -12 16 -9 17 23 14 21
-1 36 2 36 8 0 8 3 8 8 1 4 -6 14 -10 22 -10 8 0 21 -6 28 -15 11 -13 12 -13
7 0 -4 11 2 16 19 18 20 1 24 -2 21 -20 -3 -11 -1 -17 3 -14 4 4 8 12 8 17 1
5 2 15 3 22 1 7 7 4 16 -7 8 -11 15 -15 15 -9 0 12 18 12 37 0 7 -4 16 0 22
10 6 10 11 13 11 7 0 -6 15 -10 33 -10 18 1 37 -5 45 -14 10 -13 11 -12 5 4
-4 13 -3 17 5 12 7 -4 12 -3 12 3 0 6 6 8 14 5 8 -3 13 -14 11 -25 -2 -11 0
-17 6 -14 5 4 7 10 4 15 -3 5 0 12 6 16 6 3 15 0 20 -7 7 -12 9 -12 9 0 0 11
3 11 17 0 11 -10 14 -10 9 -1 -4 6 -2 13 3 13 6 1 16 2 21 3 6 0 10 4 10 9 0
4 0 10 0 13 0 4 -8 0 -17 -7 -10 -7 -7 -1 6 14 15 16 19 27 12 27 -9 0 -10 4
-4 13 5 6 9 36 9 65 -1 42 2 51 14 47 8 -4 11 -3 7 1 -4 4 0 16 10 26 11 13
12 18 3 18 -8 0 -9 4 -4 12 5 7 9 36 8 63 -1 28 3 55 8 62 5 7 5 14 -2 18 -5
3 -10 11 -10 16 0 6 3 8 8 6 8 -6 7 76 -2 91 -3 5 2 16 12 23 15 13 16 12 3
-4 -10 -13 -10 -17 -1 -17 7 0 10 -7 6 -15 -3 -8 -1 -15 4 -15 14 0 21 18 10
25 -6 4 -7 12 -3 18 4 6 8 57 10 112 1 55 4 108 6 117 6 34 13 27 11 -11 -1
-21 2 -45 7 -52 7 -10 8 -5 5 13 -3 15 -2 30 2 32 4 2 7 45 7 95 0 50 3 92 7
92 5 1 12 2 17 3 5 0 13 4 17 8 3 4 -3 6 -14 3 -12 -2 -25 1 -28 7 -4 7 -2 8
4 4 7 -4 12 -2 12 4 0 6 5 8 12 4 7 -4 8 -3 4 5 -4 6 -2 19 6 28 11 14 10 15
-11 8 l-23 -7 21 21 c17 17 19 25 11 41 -6 11 -7 20 -2 20 4 0 9 33 9 73 1 39
3 80 5 89 7 32 13 27 14 -13 0 -25 -3 -34 -9 -26 -6 8 -7 6 -3 -6 3 -10 6 -24
6 -30 1 -7 6 1 13 17 7 16 12 56 11 90 -1 33 2 66 8 73 6 7 5 14 -2 18 -5 3
-10 11 -10 16 0 6 4 8 8 5 5 -3 5 17 2 44 -4 32 -2 54 7 66 7 10 13 13 13 8 0
-6 -5 -15 -12 -22 -9 -9 -9 -12 0 -12 8 0 11 -10 8 -25 -3 -13 -1 -27 4 -30 4
-3 7 3 5 12 -1 10 2 24 8 31 6 8 6 12 -2 12 -7 0 -9 5 -5 11 4 7 8 59 10 118
1 58 4 114 6 123 8 34 14 26 13 -15 0 -23 -4 -46 -10 -50 -6 -5 -4 -7 5 -5 16
5 18 23 24 183 2 55 5 102 6 105 1 3 2 9 1 13 -1 5 3 6 9 2 6 -3 8 -11 5 -16
-4 -5 2 -6 11 -2 11 4 13 8 6 11 -7 2 -10 8 -6 13 3 5 0 9 -5 9 -6 0 -11 5
-11 11 0 5 4 8 9 4 5 -3 12 -1 16 5 3 5 2 10 -4 10 -7 0 -7 9 -3 23 5 12 8 41
7 65 0 31 3 41 13 37 7 -2 10 -1 7 4 -3 5 -1 12 4 16 5 3 10 13 10 23 2 76 7
129 14 139 4 6 3 14 -3 18 -5 3 -10 11 -10 16 0 6 5 7 11 3 7 -4 7 1 -1 16
-11 20 -10 21 11 15 19 -6 20 -5 8 8 -8 8 -17 13 -20 11 -3 -2 -6 3 -6 10 0 7
6 13 13 13 7 0 11 -4 8 -8 -2 -4 0 -10 5 -13 15 -10 6 25 -10 35 -10 8 -7 8
10 4 18 -6 22 -4 15 6 -7 12 -10 54 -4 62 1 1 3 19 4 39 0 20 4 40 8 44 4 4 3
13 -3 21 -9 9 -8 13 0 13 8 0 9 5 1 19 -7 13 -7 22 0 26 10 6 11 5 14 -14 0
-5 5 -13 10 -18 5 -4 6 -3 3 4 -4 6 -1 14 5 16 10 4 10 6 0 6 -9 1 -10 6 -2
20 7 14 7 22 -1 27 -8 4 -7 9 2 15 11 7 11 9 1 9 -8 0 -10 5 -6 12 5 7 9 35
10 63 3 94 3 95 19 89 9 -4 15 0 15 10 0 9 -6 13 -14 10 -8 -3 -17 0 -21 6 -3
6 -3 10 2 9 19 -3 47 3 35 8 -10 4 -10 8 -1 19 9 11 9 14 -1 14 -9 0 -9 4 -2
13 5 6 8 24 6 40 -2 18 1 25 8 21 7 -5 8 -2 3 5 -10 17 -12 81 -3 75 5 -3 8
-1 8 5 0 5 -6 12 -12 15 -7 3 -2 3 11 0 15 -4 21 -2 17 4 -3 6 -2 14 4 17 8 5
7 11 -1 21 -6 8 -8 14 -3 14 5 0 9 37 9 83 0 45 5 85 10 90 6 4 4 11 -5 18
-13 9 -13 10 0 6 11 -3 14 -15 13 -43 -1 -26 1 -34 7 -24 5 8 6 18 3 23 -3 5
0 13 7 17 8 5 9 13 4 21 -12 19 -11 42 1 51 6 5 5 8 -3 8 -9 0 -10 6 -4 18 4
9 7 50 7 90 -1 69 6 90 19 56 9 -24 7 -31 -5 -14 -9 12 -10 12 -5 -3 3 -10 6
-24 6 -30 1 -7 7 2 14 18 8 19 10 34 4 42 -5 6 -5 13 -1 16 4 3 8 42 7 86 0
57 3 80 11 77 7 -2 12 2 12 10 0 8 -6 13 -13 10 -8 -3 -11 2 -9 16 3 11 7 23
10 26 2 3 -1 12 -8 20 -10 13 -9 14 11 3 12 -6 22 -8 23 -4 1 10 7 144 8 191
1 18 5 31 11 27 5 -3 7 -12 3 -20 -3 -8 0 -15 5 -15 6 0 9 11 6 25 -3 15 0 25
8 25 6 0 3 7 -8 16 -10 8 -13 13 -6 9 12 -6 14 2 14 68 1 15 6 27 12 27 7 0 7
3 1 8 -13 9 -15 52 -2 52 6 0 5 5 -1 13 -8 9 -7 20 2 39 9 17 10 30 4 36 -6 6
-6 12 1 17 6 3 10 1 9 -6 -2 -6 2 -13 7 -15 6 -3 10 37 10 107 0 61 4 113 9
116 5 4 6 1 2 -5 -3 -6 -2 -13 3 -16 5 -4 7 -19 5 -33 -3 -15 -2 -25 1 -21 4
3 7 12 9 20 1 7 6 19 10 27 6 10 5 12 -2 7 -12 -7 -12 27 0 39 3 3 4 20 2 37
-2 17 2 38 9 46 6 9 7 13 1 9 -7 -4 -10 8 -9 36 4 65 4 67 16 65 6 -2 14 3 16
10 3 7 -1 10 -9 7 -9 -4 -15 0 -15 8 0 9 7 12 19 9 14 -3 17 0 12 12 -3 9 -11
13 -18 9 -6 -4 -5 1 2 10 8 9 16 50 18 93 2 43 6 80 9 82 3 3 0 10 -5 17 -6 8
-5 18 6 31 14 18 15 18 4 -3 -8 -17 -8 -23 0 -23 7 0 9 -13 5 -37 -3 -20 -3
-34 0 -31 10 9 17 60 19 129 1 41 7 74 16 85 14 18 14 18 -3 5 -16 -13 -17
-11 -13 23 6 47 14 59 33 51 13 -4 14 -3 3 10 -10 12 -16 13 -29 3 -14 -12
-14 -11 -2 4 7 10 17 16 21 13 4 -3 10 2 14 10 3 8 1 17 -5 20 -5 4 -6 12 -2
18 6 10 9 42 12 135 1 18 5 31 10 27 5 -3 8 -18 5 -33 -3 -19 -2 -23 5 -13 5
8 7 23 5 35 -2 11 2 24 9 28 9 6 9 8 0 8 -7 0 -10 7 -6 17 5 12 3 14 -8 8 -12
-8 -12 -6 0 9 10 11 15 44 15 94 1 69 8 86 26 65 3 -4 0 -4 -5 0 -6 3 -12 -4
-12 -15 -2 -19 -1 -19 11 -3 7 10 12 29 10 41 -1 13 1 24 4 24 4 0 7 33 6 72
-1 83 3 101 21 95 6 -3 12 1 12 8 0 7 -8 10 -21 7 -19 -4 -19 -3 -6 9 22 20
47 54 34 46 -7 -4 -15 0 -18 9 -3 8 -2 12 4 9 6 -4 11 10 11 32 7 162 7 163
22 160 7 -1 11 8 10 26 -1 15 1 26 5 23 4 -2 7 25 6 59 0 35 3 62 7 59 4 -2 5
6 1 18 -4 17 -2 20 12 15 10 -4 15 -3 11 3 -3 6 -14 10 -23 10 -14 0 -15 2 -2
9 8 6 18 7 24 4 5 -3 6 -1 2 6 -4 6 -2 19 6 28 7 9 8 14 2 10 -7 -4 -15 0 -18
9 -3 8 -2 12 4 9 11 -7 12 -2 12 72 0 29 4 51 8 48 5 -3 12 -1 15 5 4 6 1 9
-6 8 -6 -2 -12 9 -13 25 -1 22 2 27 15 24 11 -3 16 1 14 12 -1 9 1 24 6 33 6
11 5 18 -4 21 -9 3 -9 8 -1 18 6 8 10 33 9 56 -1 24 2 40 8 36 5 -3 5 3 -1 13
-11 20 -9 80 2 92 4 3 5 -5 3 -19 -3 -17 -1 -26 8 -26 7 0 11 6 8 14 -3 7 1
13 8 13 10 0 11 3 3 8 -8 5 -9 23 -5 54 4 25 6 56 4 68 -2 14 1 19 9 14 7 -5
8 -3 3 7 -14 22 -13 88 2 93 10 4 11 1 3 -13 -7 -14 -6 -20 5 -25 8 -3 17 0
21 6 5 7 2 8 -6 3 -10 -6 -11 -3 -6 16 4 13 8 51 9 84 2 59 -9 89 -28 77 -16
-10 -45 -9 -45 1 0 5 -5 5 -13 -1 -8 -7 -18 -7 -27 -2 -8 5 -18 6 -23 3 -16
-10 -57 -10 -57 0 0 6 -5 5 -13 -1 -8 -7 -18 -7 -27 -2 -8 5 -18 6 -23 3 -16
-10 -57 -10 -57 0 0 6 -5 5 -13 -1 -8 -7 -18 -7 -27 -2 -8 5 -18 6 -23 3 -16
-10 -57 -10 -57 0 0 6 -5 5 -13 -1 -8 -7 -18 -7 -27 -2 -8 5 -18 6 -23 3 -16
-10 -57 -10 -57 0 0 6 -5 5 -13 -1 -8 -7 -18 -7 -27 -2 -8 5 -18 6 -23 3 -16
-10 -57 -10 -57 0 0 6 -5 5 -13 -1 -8 -7 -18 -7 -27 -2 -8 5 -18 6 -23 3 -16
-10 -57 -10 -57 0 0 6 -5 5 -13 -1 -8 -7 -18 -7 -27 -2 -8 5 -18 6 -23 3 -16
-10 -57 -10 -57 0 0 6 -5 5 -13 -1 -8 -7 -18 -7 -27 -2 -8 5 -18 6 -23 3 -16
-10 -57 -10 -57 0 0 6 -5 5 -13 -1 -8 -7 -18 -7 -27 -2 -8 5 -18 6 -23 3 -15
-9 -57 -10 -57 -1 0 5 -6 6 -12 2 -7 -5 -22 -8 -33 -8 -11 0 -26 3 -33 8 -6 4
-12 3 -12 -2z m-5 -22 c3 -5 2 -10 -4 -10 -5 0 -13 5 -16 10 -3 6 -2 10 4 10
5 0 13 -4 16 -10z m-32 -244 c6 -15 -17 -16 -30 -1 -4 4 -2 5 5 1 6 -4 12 -2
12 3 0 15 7 14 13 -3z m-3 -32 c0 -8 -19 -13 -24 -6 -3 5 1 9 9 9 8 0 15 -2
15 -3z m1227 -49 c0 -8 -4 -12 -9 -9 -5 3 -6 10 -3 15 9 13 12 11 12 -6z m-42
-285 c3 -6 -1 -7 -9 -4 -18 7 -21 14 -7 14 6 0 13 -4 16 -10z m-48 -239 c0
-11 -5 -18 -9 -15 -4 3 -5 11 -1 19 7 21 12 19 10 -4z m-27 -231 c0 -5 -5 -10
-11 -10 -5 0 -7 5 -4 10 3 6 8 10 11 10 2 0 4 -4 4 -10z m-1273 -67 c-4 -3 -2
-11 3 -18 7 -8 5 -12 -5 -12 -8 0 -15 6 -15 12 0 12 10 25 18 25 3 0 2 -3 -1
-7z m-1 -58 c-3 -23 -12 -26 -13 -5 -1 11 2 20 7 20 4 0 7 -7 6 -15z m1221
-124 c0 -11 -5 -18 -9 -15 -4 3 -5 11 -1 19 7 21 12 19 10 -4z m-23 -189 c3
-5 -1 -9 -9 -9 -8 0 -12 4 -9 9 3 4 7 8 9 8 2 0 6 -4 9 -8z m-19 -32 c-3 -5
-1 -10 6 -10 7 0 10 -3 6 -6 -9 -9 -28 6 -22 17 4 5 8 9 11 9 3 0 2 -4 -1 -10z
m-1255 -134 c-7 -7 -14 -6 -21 1 -9 9 -7 12 9 10 14 -1 18 -5 12 -11z m-80
-492 c0 -8 -19 -13 -24 -6 -3 5 1 9 9 9 8 0 15 -2 15 -3z m990 -1534 c0 -5 -5
-10 -11 -10 -5 0 -7 5 -4 10 3 6 8 10 11 10 2 0 4 -4 4 -10z m-80 -480 c0 -5
-5 -10 -11 -10 -5 0 -7 5 -4 10 3 6 8 10 11 10 2 0 4 -4 4 -10z m-1311 -386
c-6 -7 -15 -11 -21 -8 -5 3 -4 12 3 20 6 7 15 11 21 8 5 -3 4 -12 -3 -20z
m1236 -94 c-3 -5 -12 -10 -18 -10 -7 0 -6 4 3 10 19 12 23 12 15 0z m-1309
-345 c1 -9 -2 -12 -9 -8 -6 4 -8 0 -4 -9 3 -9 -1 -24 -9 -35 -13 -17 -14 -17
-7 2 4 11 7 35 6 53 0 24 3 30 10 23 6 -6 12 -18 13 -26z m1224 -105 c0 -5 -5
-10 -11 -10 -5 0 -7 5 -4 10 3 6 8 10 11 10 2 0 4 -4 4 -10z m2 -34 c7 4 8 2
4 -5 -9 -13 -26 -5 -25 12 0 9 2 8 6 -1 2 -6 10 -9 15 -6z m-6 -55 c-4 -6 -13
-11 -19 -10 -9 0 -9 2 1 6 6 2 12 9 12 14 0 6 -4 8 -8 5 -5 -3 -9 2 -9 10 0
13 2 13 15 0 8 -8 11 -19 8 -25z m-1424 -1028 c-6 -2 -9 -10 -6 -15 4 -7 2 -8
-5 -4 -13 9 -5 26 12 25 9 0 8 -2 -1 -6z m1218 -143 c0 -5 -5 -10 -11 -10 -5
0 -7 5 -4 10 3 6 8 10 11 10 2 0 4 -4 4 -10z m-1342 -635 c-3 -3 -9 2 -12 12
-6 14 -5 15 5 6 7 -7 10 -15 7 -18z m1220 -38 c-1 -2 4 -12 12 -22 10 -12 10
-16 2 -11 -10 6 -12 1 -10 -20 2 -16 -2 -28 -10 -30 -7 -1 -8 0 -2 3 5 2 10 9
10 14 0 6 -4 7 -10 4 -6 -4 -7 2 -1 17 4 13 7 31 5 41 -1 11 0 17 3 14 2 -3 3
-7 1 -10z"/>
<path d="M4890 8426 c7 -7 13 -7 20 0 6 6 3 10 -10 10 -13 0 -16 -4 -10 -10z"/>
<path d="M6130 8202 c0 -5 7 -9 15 -9 8 0 12 4 9 9 -3 4 -9 8 -15 8 -5 0 -9
-4 -9 -8z"/>
<path d="M4770 7759 c0 -5 5 -7 10 -4 6 3 10 8 10 11 0 2 -4 4 -10 4 -5 0 -10
-5 -10 -11z"/>
<path d="M3067 7504 c5 -12 -29 -37 -44 -32 -4 2 -18 -7 -30 -19 -13 -13 -31
-20 -46 -19 -18 2 -24 -1 -20 -11 4 -9 9 -10 18 -3 8 7 12 6 12 -3 0 -8 -5
-14 -11 -15 -6 -1 -24 -4 -41 -6 -16 -2 -32 -5 -35 -6 -3 -1 -9 -2 -13 -1 -5
1 -6 -3 -2 -9 3 -6 10 -8 15 -5 5 3 11 1 15 -5 6 -9 -8 -15 -29 -11 -4 1 -15
-4 -24 -11 -9 -7 -13 -8 -9 -2 3 6 0 11 -8 11 -11 0 -12 -5 -3 -20 7 -14 7
-17 -1 -13 -6 4 -11 3 -11 -3 0 -5 -8 -8 -17 -6 -24 3 -38 -6 -24 -15 9 -5 8
-10 -4 -20 -10 -8 -15 -9 -15 -2 0 6 -6 9 -14 6 -8 -3 -12 -13 -10 -22 5 -15
4 -15 -6 1 -14 21 -27 22 -27 2 0 -8 5 -15 11 -15 6 0 4 -4 -4 -10 -8 -5 -17
-5 -20 0 -3 4 -23 -4 -45 -19 -22 -15 -46 -26 -52 -24 -7 3 -11 -3 -8 -16 4
-22 -6 -27 -51 -27 -17 1 -31 -4 -31 -11 0 -6 9 -10 20 -7 11 2 16 0 13 -4 -4
-4 -12 -8 -17 -8 -5 -1 -11 -3 -14 -4 -3 -1 -15 -3 -27 -4 -16 -1 -22 -7 -20
-20 2 -11 -1 -15 -7 -11 -6 3 -11 2 -11 -3 0 -5 -13 -8 -28 -7 -18 1 -29 -3
-29 -11 0 -7 5 -10 11 -7 6 3 6 1 -1 -7 -6 -7 -23 -12 -37 -12 -14 0 -26 -4
-26 -9 0 -5 6 -9 13 -9 8 0 7 -3 -3 -9 -8 -6 -17 -8 -21 -5 -4 2 -10 0 -13 -5
-4 -5 -19 -8 -34 -5 -15 2 -22 1 -17 -3 6 -5 11 -13 12 -19 2 -11 -8 -13 -60
-15 -23 0 -27 -4 -22 -20 6 -19 -2 -24 -34 -20 -7 2 -10 -2 -7 -7 9 -14 -18
-33 -51 -35 -15 -1 -29 -8 -29 -15 -1 -6 -2 -16 -3 -20 0 -4 -13 -7 -28 -6
-31 1 -56 -13 -47 -27 5 -9 -9 -13 -32 -10 -6 1 -18 -7 -25 -16 -13 -17 -13
-17 5 -3 18 14 19 14 8 -7 -8 -14 -18 -20 -32 -16 -15 4 -18 1 -15 -15 2 -14
-1 -19 -13 -17 -9 1 -25 -2 -34 -7 -13 -6 -18 -5 -18 4 0 9 -3 9 -10 -2 -13
-20 -13 -33 0 -25 6 3 7 -1 3 -10 -3 -9 -9 -13 -12 -8 -9 12 -31 15 -31 4 0
-5 -8 -8 -17 -7 -10 0 -18 -5 -18 -12 0 -18 -22 -30 -50 -27 -13 2 -26 -3 -29
-11 -4 -11 -1 -12 13 -5 13 7 18 6 18 -3 0 -13 -5 -14 -52 -17 -14 -1 -24 -4
-21 -7 3 -2 1 -12 -4 -22 -6 -12 -17 -16 -35 -13 -15 3 -25 1 -25 -6 0 -7 -5
-9 -11 -6 -6 4 -9 0 -7 -11 2 -14 -2 -18 -19 -16 -14 2 -23 -4 -28 -18 -6 -19
-24 -24 -70 -21 -16 2 -17 0 -6 -8 22 -14 -3 -41 -31 -33 -17 4 -20 2 -15 -11
4 -10 3 -17 -1 -18 -4 0 -16 -3 -27 -5 -11 -3 -26 -6 -33 -6 -7 -1 -11 -7 -8
-14 3 -7 -3 -18 -11 -26 -15 -11 -16 -11 -9 6 7 20 7 20 -15 0 -11 -10 -23
-18 -25 -16 -2 1 -12 2 -21 2 -14 0 -15 -2 -4 -9 11 -7 11 -10 0 -17 -8 -5
-24 -8 -37 -9 -15 0 -29 -10 -37 -25 -7 -14 -16 -24 -19 -22 -16 6 -28 0 -22
-13 4 -10 -1 -15 -17 -14 -37 1 -62 -8 -59 -21 5 -20 -20 -31 -37 -17 -11 9
-13 9 -8 0 4 -6 1 -14 -5 -17 -11 -5 -11 -7 0 -12 6 -3 10 -10 6 -15 -3 -5
-12 -5 -23 0 -10 6 -23 6 -31 1 -8 -5 -17 -7 -21 -4 -4 2 -5 -4 -2 -15 3 -11
-2 -21 -11 -24 -9 -4 -16 -2 -16 3 0 5 -7 7 -15 4 -8 -3 -14 -9 -13 -12 3 -23
-5 -32 -28 -32 -17 0 -23 -4 -18 -12 6 -10 5 -10 -8 0 -12 10 -18 9 -28 -3
-11 -13 -10 -14 6 -8 16 6 17 5 6 -9 -7 -9 -21 -14 -32 -11 -14 4 -20 0 -20
-11 0 -9 5 -16 12 -16 6 0 8 -3 4 -7 -4 -4 -16 3 -26 16 l-18 24 2 -24 c1 -20
-3 -24 -34 -24 -24 0 -35 -5 -35 -15 -1 -8 -6 -14 -13 -12 -7 1 -12 -3 -12 -9
0 -5 -4 -7 -10 -4 -9 6 -14 -8 -11 -27 0 -5 -7 -8 -18 -8 -18 0 -45 -23 -36
-31 2 -3 -4 -5 -13 -6 -55 -4 -63 -8 -58 -26 3 -13 0 -17 -9 -13 -11 4 -55
-21 -75 -44 -3 -3 -15 -5 -27 -4 -12 1 -27 -3 -35 -8 -10 -8 -9 -9 4 -5 9 3
19 0 22 -8 3 -9 -1 -12 -15 -10 -10 2 -19 0 -19 -6 0 -5 -11 -7 -25 -3 -19 5
-24 3 -20 -7 3 -8 -4 -20 -16 -27 -14 -9 -19 -10 -14 -2 4 7 -4 5 -18 -5 -14
-9 -28 -22 -30 -29 -3 -8 -17 -12 -34 -10 -15 2 -22 1 -15 -2 17 -8 15 -17 -9
-32 -17 -11 -20 -11 -13 0 6 11 5 11 -9 0 -9 -8 -21 -11 -27 -7 -12 7 -13 3
-16 -145 -1 -63 -2 -128 -3 -145 -1 -16 -1 -70 0 -120 1 -49 1 -103 0 -120 -1
-16 -1 -70 0 -120 1 -49 1 -103 0 -120 -1 -16 -1 -70 0 -120 1 -49 1 -103 0
-120 -1 -16 -1 -70 0 -120 1 -49 0 -103 0 -120 -1 -16 0 -41 2 -55 3 -14 5
-30 6 -36 0 -6 7 -11 14 -12 52 -7 62 -10 63 -23 1 -8 2 -18 3 -23 0 -5 8 -3
16 4 15 12 20 5 16 -25 -1 -5 6 -1 15 10 16 20 16 20 11 -2 -5 -23 -4 -25 34
-27 13 -1 25 -11 31 -26 7 -20 11 -22 18 -10 8 12 10 12 10 1 0 -7 6 -11 14
-8 8 3 20 -1 28 -10 11 -14 10 -15 -12 -8 -24 7 -24 6 -5 -8 10 -8 30 -13 43
-11 19 4 23 1 19 -11 -4 -9 -1 -15 9 -15 9 0 12 -5 8 -12 -5 -9 -2 -9 9 1 11
9 17 10 17 2 0 -6 3 -10 8 -10 19 3 33 -2 27 -10 -6 -11 13 -25 35 -26 8 0 15
-9 15 -20 0 -17 6 -20 38 -19 39 0 44 -5 25 -24 -9 -9 -7 -11 10 -7 12 2 24
-1 27 -6 4 -5 10 -7 14 -4 5 2 17 -3 27 -11 18 -15 18 -15 -5 -10 -14 3 -20 1
-15 -4 5 -5 23 -11 39 -13 19 -3 30 -10 29 -19 -1 -9 5 -15 15 -13 9 1 24 -7
34 -19 16 -20 17 -20 10 -1 -6 18 -5 18 10 6 9 -7 17 -19 17 -26 0 -7 6 -13
12 -12 44 1 57 -4 51 -20 -4 -11 -3 -14 5 -9 7 4 12 2 12 -3 0 -6 3 -10 8 -10
4 1 16 1 27 0 15 -1 16 -4 7 -10 -19 -11 5 -27 40 -26 15 0 24 -3 22 -7 -3 -4
0 -8 6 -8 6 0 9 -4 6 -9 -3 -5 5 -12 19 -15 14 -4 24 -10 22 -14 -1 -4 1 -7 4
-7 3 0 12 -5 20 -11 8 -6 22 -10 32 -9 9 2 18 -1 18 -6 1 -5 2 -13 3 -18 2
-14 16 -26 16 -14 0 20 58 -9 64 -31 5 -16 8 -18 15 -8 6 11 10 10 16 -5 5
-10 8 -21 7 -24 -1 -6 2 -7 53 -12 17 -2 29 -7 28 -13 -2 -13 18 -35 27 -29 5
3 12 0 16 -6 4 -8 9 -7 15 2 7 11 9 11 10 2 1 -7 2 -19 3 -25 1 -7 9 -12 18
-10 9 1 24 -8 32 -20 9 -13 22 -23 29 -24 6 0 22 -2 34 -2 15 -2 20 -7 16 -20
-4 -16 1 -18 31 -17 19 0 33 -2 31 -5 -5 -8 21 -41 31 -39 5 1 16 1 24 0 12
-1 13 -3 1 -10 -18 -11 19 -26 74 -30 16 -1 17 -3 5 -11 -9 -6 -17 -5 -21 1
-4 7 -9 4 -12 -6 -4 -9 -3 -13 2 -10 5 3 12 1 15 -4 3 -5 19 -7 35 -6 24 2 29
-1 26 -16 -4 -18 12 -24 62 -22 7 1 11 -2 9 -6 -7 -11 21 -42 35 -39 8 2 13
-4 13 -13 -1 -10 5 -16 15 -14 9 1 21 -2 28 -7 7 -5 16 -7 22 -4 5 3 12 -1 15
-10 4 -10 2 -13 -6 -8 -7 5 -8 3 -3 -5 4 -7 16 -11 26 -8 11 3 19 2 19 -2 0
-4 7 -16 15 -27 14 -18 14 -18 10 5 -2 13 -1 20 3 17 4 -4 8 -12 8 -17 1 -5 2
-13 3 -18 0 -5 7 -9 14 -8 6 0 21 -1 32 -2 15 -1 17 -3 6 -10 -7 -5 -10 -14
-6 -20 5 -9 10 -9 21 0 11 9 14 9 14 0 0 -7 8 -10 18 -7 12 4 19 1 19 -8 0 -9
-5 -12 -11 -9 -6 3 -6 1 1 -7 6 -7 23 -12 37 -12 15 0 29 -5 32 -10 4 -6 10
-5 16 3 7 11 9 11 7 -1 -3 -30 1 -38 19 -35 24 4 35 -5 23 -19 -7 -8 -3 -12
16 -14 31 -2 48 -23 30 -34 -7 -5 0 -6 16 -4 15 3 27 0 27 -5 0 -6 4 -8 9 -4
5 3 12 1 16 -4 3 -6 13 -7 23 -4 15 5 15 4 -1 -9 -18 -13 -18 -14 0 -15 56 -4
62 -7 50 -22 -9 -12 -9 -13 1 -7 7 4 14 1 18 -7 3 -8 16 -13 29 -11 17 1 31
-6 44 -22 11 -14 22 -25 25 -25 20 2 24 -1 21 -17 -2 -11 4 -17 19 -18 45 -4
64 -8 60 -16 -7 -11 35 -30 49 -22 8 5 7 2 -2 -9 -7 -9 -12 -17 -10 -18 2 0
13 -3 24 -5 11 -2 28 -5 37 -6 10 -1 20 -8 22 -15 3 -7 -1 -10 -12 -7 -16 5
-16 5 0 -5 9 -6 29 -12 43 -13 17 -2 31 -11 37 -24 7 -16 17 -21 33 -18 14 2
22 -1 22 -11 0 -8 -5 -11 -11 -8 -8 4 -8 2 0 -6 6 -7 27 -13 47 -14 29 -2 34
-5 26 -18 -6 -12 -3 -21 8 -30 13 -11 15 -11 9 -1 -6 9 -3 12 10 10 25 -4 36
-21 21 -30 -7 -4 2 -8 21 -8 24 0 31 -3 25 -12 -4 -7 5 -5 19 4 25 16 27 16
40 0 11 -15 11 -16 -3 -5 -13 11 -19 9 -35 -10 -10 -12 -12 -16 -4 -9 17 15
31 16 27 1 -1 -6 6 -13 16 -14 9 -2 15 0 13 4 -3 4 -1 13 4 21 5 9 5 19 -1 26
-7 8 -7 14 0 18 7 5 7 15 1 31 -7 17 -6 25 1 25 7 0 8 5 3 12 -11 16 -11 39
-1 56 5 6 4 12 -2 12 -9 0 -7 37 3 48 3 2 1 13 -5 23 -7 14 -6 19 2 19 9 0 9
3 0 14 -8 10 -9 16 -1 21 7 4 7 12 0 26 -8 14 -7 19 2 19 9 0 9 3 0 12 -7 7
-8 17 -2 28 5 9 5 22 1 29 -5 7 -5 30 -1 52 4 21 4 39 0 39 -8 0 -7 31 2 46 4
5 3 16 -1 23 -5 7 -5 28 -1 47 5 20 4 34 -2 34 -5 0 -5 6 1 17 5 10 5 26 0 40
-6 15 -5 23 2 23 7 0 8 5 3 13 -11 15 -11 38 -1 55 5 6 4 12 -2 12 -9 0 -7 37
3 48 3 2 1 13 -5 23 -7 14 -6 19 2 19 9 0 9 3 0 14 -8 10 -9 16 -1 21 7 4 7
12 0 26 -8 14 -7 19 2 19 9 0 9 3 0 12 -7 7 -8 17 -2 28 5 9 5 22 1 29 -5 7
-5 30 -1 52 4 21 4 39 0 39 -8 0 -7 31 2 46 4 5 3 16 -1 23 -5 7 -5 28 -1 47
5 20 4 34 -1 34 -6 0 -6 7 0 18 6 11 6 24 1 32 -5 9 -5 19 1 26 7 8 7 14 0 18
-5 4 -8 15 -6 26 3 17 1 18 -14 10 -15 -7 -18 -6 -17 7 0 10 -9 19 -24 23 -15
4 -24 13 -24 23 2 20 -7 22 -23 6 -8 -8 -13 -7 -18 2 -6 8 -4 10 5 4 9 -6 11
-4 6 4 -5 7 -14 10 -20 8 -7 -3 -19 -1 -27 4 -11 7 -11 9 -1 9 7 0 10 5 7 10
-4 6 -14 9 -23 8 -9 -2 -17 2 -17 9 0 13 -25 42 -25 30 0 -4 -9 -3 -20 3 -15
8 -20 8 -20 -1 0 -14 -14 -3 -16 12 -1 5 -2 13 -3 18 0 4 -12 7 -26 6 -25 -3
-35 10 -13 17 8 3 6 7 -5 11 -9 3 -19 1 -23 -5 -5 -7 -2 -8 6 -3 9 6 11 4 6
-4 -9 -14 -21 -6 -21 12 0 7 -6 13 -12 13 -7 1 -18 2 -24 3 -5 0 -7 6 -4 11 3
6 1 10 -5 10 -6 0 -8 4 -5 10 4 6 -1 7 -11 3 -11 -4 -22 1 -30 12 -8 10 -14
13 -14 7 0 -7 -4 -12 -10 -12 -5 0 -9 3 -9 8 4 22 -3 30 -21 27 -13 -3 -18 0
-14 7 5 7 2 9 -8 5 -10 -3 -15 0 -14 11 0 9 -6 17 -14 18 -8 0 -26 2 -40 3
-20 1 -22 3 -10 11 8 5 12 11 10 13 -12 10 -73 26 -81 21 -5 -3 -9 -2 -8 3 3
17 -1 33 -8 32 -25 -4 -45 3 -40 14 6 15 -40 40 -49 26 -10 -16 -25 2 -19 22
6 17 3 19 -18 15 -14 -2 -28 -1 -32 2 -4 4 -12 7 -17 7 -6 0 -13 7 -15 15 -3
9 -1 11 4 5 12 -15 30 -16 30 -1 0 7 -10 12 -21 11 -12 -1 -27 3 -35 9 -12 9
-13 8 -6 -3 5 -10 4 -12 -4 -7 -6 4 -10 15 -9 24 2 13 -5 17 -29 16 -28 0 -32
3 -29 21 4 19 0 21 -30 20 -19 -1 -37 2 -41 8 -4 6 -1 7 8 2 11 -7 12 -6 2 7
-7 8 -11 17 -8 19 2 3 -11 4 -30 4 -19 -1 -36 4 -39 11 -3 8 1 11 12 8 9 -3 6
1 -7 9 -14 8 -31 13 -38 10 -7 -3 -13 2 -13 11 0 17 -45 40 -61 30 -8 -5 -13
9 -10 29 0 4 -7 7 -16 7 -9 0 -25 8 -35 17 -18 16 -18 16 -12 -3 6 -16 5 -17
-7 -6 -8 7 -14 18 -14 24 0 6 -11 13 -25 15 -14 3 -32 6 -40 7 -8 2 -14 11
-12 21 3 13 -1 16 -17 12 -12 -3 -26 2 -33 11 -7 9 -8 13 -2 9 6 -3 11 0 11 7
0 7 -7 13 -16 13 -55 0 -63 3 -59 21 4 15 0 18 -18 16 -12 -1 -25 4 -28 13 -3
8 -10 11 -16 8 -5 -3 -7 0 -4 8 3 9 -2 13 -18 13 -15 -1 -22 4 -20 13 3 12 1
12 -15 1 -10 -8 -15 -11 -11 -6 16 19 -11 42 -46 41 -29 -2 -34 0 -25 11 14
17 23 18 13 2 -4 -7 -3 -8 5 -4 16 10 4 26 -14 19 -9 -3 -15 1 -15 8 0 10 -3
10 -8 3 -4 -7 -15 -8 -27 -3 -11 4 -15 8 -10 8 12 1 13 41 1 59 -10 16 6 15
23 0 11 -10 13 -10 7 0 -7 12 0 15 37 15 19 0 23 12 7 22 -5 3 -10 1 -10 -5 0
-6 -5 -8 -11 -4 -8 4 -7 9 2 15 7 4 16 6 20 3 4 -2 10 0 14 5 3 6 12 8 20 5
19 -8 51 11 36 20 -6 4 -11 2 -11 -4 0 -6 -5 -8 -10 -5 -14 9 -1 27 15 21 7
-2 26 6 42 20 15 13 33 22 40 19 7 -2 15 0 19 6 3 6 13 8 23 4 13 -5 14 -4 3
6 -18 19 -15 34 5 18 9 -8 14 -9 10 -3 -4 7 0 15 9 18 9 4 13 2 8 -5 -4 -7 1
-7 15 1 17 8 20 15 12 24 -9 10 -6 13 14 12 14 0 25 4 26 9 2 19 21 34 36 28
11 -5 14 -3 8 6 -6 10 -3 11 15 1 15 -8 20 -8 16 -1 -4 6 -2 11 4 11 7 0 10 7
6 15 -3 8 -1 15 4 15 6 0 10 -5 10 -11 0 -6 7 -4 15 5 9 8 23 12 32 9 11 -4
14 -3 9 5 -4 7 -2 12 6 12 10 0 9 3 -2 11 -13 9 -13 10 1 6 19 -6 44 8 44 25
0 7 13 14 29 15 39 3 56 10 56 23 0 6 -5 8 -12 4 -7 -4 -8 -3 -4 5 4 7 13 10
19 8 7 -2 25 7 40 20 16 13 33 21 37 18 5 -3 11 -1 15 5 4 6 10 8 15 5 5 -3 7
3 5 14 -2 14 1 18 11 14 7 -3 11 -10 7 -17 -3 -6 -2 -7 3 -3 5 5 10 13 10 18
3 20 4 21 17 11 15 -13 32 -3 32 18 0 8 7 15 15 15 8 0 20 3 25 6 6 4 18 5 28
4 9 -2 15 1 12 5 -3 5 -14 7 -25 5 -33 -6 -12 13 23 21 17 4 35 7 40 6 4 -1 6
1 6 5 -4 22 3 31 26 32 54 3 55 3 43 24 -7 14 -7 17 1 13 6 -4 11 -2 11 5 0 8
4 8 15 -1 10 -8 15 -9 15 -2 0 6 8 9 18 6 16 -5 16 -5 0 6 -25 16 -23 33 2 20
16 -8 20 -8 18 2 -2 8 6 13 20 12 15 -1 22 4 22 18 0 11 5 16 10 13 6 -3 16
-3 23 2 17 11 31 10 40 -2 5 -6 7 -4 6 5 -3 32 2 40 25 40 19 0 24 4 21 20 -3
17 -1 19 17 9 15 -8 19 -8 14 0 -4 6 -2 12 3 12 6 1 16 3 21 4 6 1 15 3 21 4
8 1 8 5 0 14 -11 15 -8 16 54 18 28 1 29 1 7 10 -13 5 -20 14 -17 19 5 8 12 7
23 -2 12 -10 14 -10 8 0 -4 8 -1 12 9 12 12 0 15 5 11 18 -6 16 -5 16 8 0 18
-24 26 -23 21 2 -2 12 1 20 8 19 31 -4 67 2 67 11 0 5 -6 7 -14 4 -8 -3 -16
-1 -20 4 -3 5 0 9 7 10 22 3 62 10 67 12 3 1 9 2 13 1 4 -1 3 8 -4 20 -6 12
-7 19 -2 16 5 -3 15 -2 23 3 8 5 21 5 31 0 23 -13 32 0 11 17 -9 8 -11 12 -4
8 6 -3 12 -1 12 4 0 6 3 10 8 10 27 -4 44 2 38 16 -3 9 0 15 10 15 8 0 13 -4
9 -9 -3 -5 -1 -12 3 -15 5 -3 8 7 7 22 -1 15 2 33 8 40 6 8 6 12 -1 12 -10 0
-8 37 2 48 3 2 1 13 -5 23 -7 14 -6 19 2 19 8 0 8 4 -1 15 -10 12 -10 15 1 15
9 0 10 3 4 8 -14 10 -15 42 -2 42 8 0 7 4 -1 12 -7 7 -8 17 -2 28 5 9 5 22 1
29 -5 7 -5 28 -1 47 5 20 4 34 -2 34 -5 0 -5 6 1 17 5 10 5 26 0 40 -6 15 -5
23 2 23 7 0 8 5 3 13 -11 15 -11 38 -1 55 5 6 4 12 -2 12 -9 0 -7 37 3 48 3 2
1 13 -5 23 -7 14 -6 19 2 19 7 0 5 8 -6 20 -17 19 -17 20 -2 14 15 -5 16 -3 7
20 -6 18 -6 26 1 26 6 0 7 6 2 13 -11 18 -12 37 -2 37 6 0 7 6 2 13 -10 16
-11 28 -2 53 4 11 3 27 -1 34 -5 8 -4 22 1 32 7 12 6 18 -1 18 -7 0 -8 6 -1
18 7 13 7 22 0 29 -8 8 -8 13 0 17 7 5 7 15 1 31 -6 17 -6 25 1 25 6 0 7 6 2
13 -11 18 -12 37 -2 37 6 0 7 6 2 13 -10 16 -11 28 -2 53 4 11 3 27 -1 34 -5
8 -4 22 1 32 7 12 6 18 -1 18 -7 0 -8 6 -1 18 7 13 7 22 0 29 -8 8 -8 13 0 17
6 4 7 15 1 30 -5 15 -5 27 3 35 8 8 8 11 -1 11 -9 0 -10 5 -3 19 6 10 8 21 5
24 -3 3 -7 13 -9 24 -2 10 -4 20 -4 22 -1 2 -9 -3 -18 -10 -9 -8 -14 -9 -10
-3 3 6 0 11 -7 11 -8 0 -12 -6 -9 -13z m23 -24 c0 -5 -2 -10 -4 -10 -3 0 -8 5
-11 10 -3 6 -1 10 4 10 6 0 11 -4 11 -10z m-450 -270 c0 -5 -8 -10 -17 -10
-15 0 -16 2 -3 10 19 12 20 12 20 0z m-439 -277 c13 -15 12 -15 -8 -4 -24 12
-29 21 -14 21 5 0 15 -7 22 -17z m-206 -131 c-8 -8 -25 10 -19 20 4 6 9 5 15
-3 4 -7 6 -15 4 -17z m1109 -140 c3 -5 -1 -9 -9 -9 -8 0 -12 4 -9 9 3 4 7 8 9
8 2 0 6 -4 9 -8z m6 -236 c0 -3 -4 -8 -10 -11 -5 -3 -10 -1 -10 4 0 6 5 11 10
11 6 0 10 -2 10 -4z m-1950 -130 c9 -12 8 -15 -8 -13 -12 0 -18 6 -15 14 6 16
8 16 23 -1z m-118 -73 c-6 -3 -9 -10 -5 -16 4 -7 -1 -6 -10 2 -21 17 -21 17 6
18 12 0 16 -1 9 -4z m2062 -41 c3 -5 -1 -9 -9 -9 -8 0 -12 4 -9 9 3 4 7 8 9 8
2 0 6 -4 9 -8z m-2460 -207 c3 -9 0 -15 -8 -15 -7 0 -13 7 -13 15 0 8 4 15 8
15 4 0 9 -7 13 -15z m1940 -236 c-3 -5 -10 -7 -15 -3 -5 3 -7 10 -3 15 3 5 10
7 15 3 5 -3 7 -10 3 -15z m-2380 -47 c3 -5 -1 -9 -9 -9 -8 0 -12 4 -9 9 3 4 7
8 9 8 2 0 6 -4 9 -8z m2181 -72 c3 -5 1 -10 -4 -10 -6 0 -11 5 -11 10 0 6 2
10 4 10 3 0 8 -4 11 -10z m-435 -1044 c0 -3 -4 -8 -10 -11 -5 -3 -10 -1 -10 4
0 6 5 11 10 11 6 0 10 -2 10 -4z m190 -120 c0 -3 -4 -8 -10 -11 -5 -3 -10 -1
-10 4 0 6 5 11 10 11 6 0 10 -2 10 -4z m-1628 -448 c-8 -8 -9 -4 -5 13 4 13 8
18 11 10 2 -7 -1 -18 -6 -23z m2402 -27 c3 -5 0 -14 -8 -20 -10 -9 -15 -8 -19
3 -4 11 -1 13 10 9 11 -4 14 -2 9 5 -4 7 -5 12 -2 12 3 0 7 -4 10 -9z m-1874
-281 c6 -11 8 -20 6 -20 -3 0 -10 9 -16 20 -6 11 -8 20 -6 20 3 0 10 -9 16
-20z m2064 2 c3 -5 -1 -9 -9 -9 -8 0 -12 4 -9 9 3 4 7 8 9 8 2 0 6 -4 9 -8z
m0 -400 c3 -5 -1 -9 -9 -9 -8 0 -12 4 -9 9 3 4 7 8 9 8 2 0 6 -4 9 -8z m6
-236 c0 -3 -4 -8 -10 -11 -5 -3 -10 -1 -10 4 0 6 5 11 10 11 6 0 10 -2 10 -4z
m-790 -167 c0 -6 -4 -7 -10 -4 -5 3 -10 11 -10 16 0 6 5 7 10 4 6 -3 10 -11
10 -16z m784 -237 c3 -5 -1 -9 -9 -9 -8 0 -12 4 -9 9 3 4 7 8 9 8 2 0 6 -4 9
-8z"/>
<path d="M6804 7508 c-5 -7 -2 -8 7 -3 11 7 12 6 3 -6 -7 -9 -10 -233 -8 -714
1 -385 2 -703 3 -707 0 -5 7 -7 14 -5 7 1 11 -6 9 -17 -2 -10 1 -15 7 -12 5 4
12 2 16 -4 4 -6 10 -8 15 -5 4 3 14 -3 21 -12 12 -14 12 -16 0 -8 -10 6 -12 4
-7 -4 5 -7 14 -10 22 -7 8 3 14 1 14 -5 0 -5 6 -9 13 -8 28 3 35 -2 29 -23 -5
-21 -4 -22 11 -9 13 10 17 10 17 1 0 -7 6 -10 13 -7 8 3 19 2 26 -3 10 -5 9
-9 -4 -13 -10 -5 -14 -3 -9 5 5 7 3 8 -5 4 -13 -9 -8 -19 12 -22 7 -1 23 -5
37 -7 14 -3 27 -6 30 -6 3 -1 -1 -5 -8 -10 -10 -6 -7 -11 15 -18 15 -6 36 -9
45 -7 10 1 17 -1 17 -4 -1 -4 -1 -15 0 -25 1 -14 5 -16 20 -7 22 11 28 5 25
-27 0 -12 3 -20 8 -17 4 3 6 9 3 14 -3 5 -1 12 5 15 6 4 9 1 8 -7 -2 -8 7 -13
24 -13 14 1 25 -3 22 -6 -2 -4 0 -10 6 -14 6 -4 8 -10 5 -15 -7 -11 14 -17 47
-15 15 1 25 -2 22 -7 -3 -4 -10 -6 -15 -3 -5 4 -9 0 -9 -8 0 -8 10 -13 23 -13
13 1 21 -4 19 -12 -2 -10 2 -10 18 -2 11 6 20 7 19 3 -5 -31 3 -39 39 -37 27
1 39 -3 39 -12 0 -10 -4 -11 -13 -3 -8 7 -14 6 -20 -2 -4 -8 -3 -9 5 -5 6 4
14 1 17 -7 3 -8 16 -13 30 -11 20 2 25 -1 21 -15 -4 -17 -1 -18 58 -23 13 -1
22 -4 20 -6 -2 -3 1 -14 6 -25 9 -16 13 -17 20 -6 7 12 9 12 9 0 0 -7 6 -11
13 -8 19 7 43 -8 28 -17 -6 -4 -11 -2 -11 4 0 6 -4 8 -10 5 -12 -7 -14 -26 -2
-24 27 5 72 -3 72 -12 0 -5 -6 -7 -12 -3 -10 6 -10 5 -1 -8 7 -8 9 -19 5 -24
-4 -4 0 -4 8 2 10 7 26 8 48 2 30 -8 32 -11 20 -25 -9 -12 -9 -15 0 -9 6 4 12
3 12 -2 0 -6 8 -8 18 -5 10 2 25 -3 33 -13 13 -16 12 -17 -6 -10 -16 6 -17 5
-8 -5 10 -10 16 -9 29 2 10 8 15 9 11 3 -3 -6 0 -20 8 -30 13 -17 14 -17 9 -1
-5 13 -2 16 10 11 9 -3 16 -12 16 -19 0 -15 46 -29 62 -19 7 4 8 3 4 -4 -4 -7
-1 -12 6 -12 11 0 10 -2 0 -9 -11 -6 -9 -9 6 -13 11 -3 25 -1 30 4 7 7 10 2 8
-15 -2 -15 1 -24 5 -21 5 3 9 0 9 -6 0 -6 5 -8 10 -5 6 4 18 1 27 -7 12 -9 15
-9 9 -1 -5 9 -2 11 9 7 9 -4 14 -13 11 -21 -4 -10 0 -13 16 -11 15 2 24 -3 27
-17 4 -11 12 -21 20 -23 10 -2 12 1 5 10 -5 8 -1 5 8 -5 10 -11 15 -24 11 -30
-3 -6 -1 -7 6 -3 6 4 9 11 6 16 -3 5 4 8 15 7 13 -1 16 -5 10 -11 -15 -15 -12
-22 10 -23 13 -1 18 2 14 9 -4 7 -2 8 4 4 7 -4 12 -16 12 -26 0 -23 16 -35 26
-19 4 7 3 9 -3 6 -5 -3 -10 0 -10 8 0 11 4 12 14 4 7 -6 10 -16 6 -22 -4 -6 4
-8 20 -5 14 3 32 1 39 -4 10 -8 9 -9 -3 -5 -13 4 -15 1 -12 -14 3 -11 15 -20
27 -20 11 -1 26 -2 31 -4 6 -1 14 -3 19 -3 5 -1 4 -8 -2 -15 -11 -12 2 -17 60
-20 9 -1 16 -4 16 -7 -3 -16 16 -38 28 -33 20 7 29 -24 13 -44 -8 -9 -9 -14
-3 -10 7 4 15 -1 18 -10 4 -10 4 -14 0 -11 -4 4 -16 3 -27 -3 -15 -9 -18 -8
-11 3 9 16 -24 -7 -43 -30 -6 -8 -23 -15 -36 -16 -16 0 -22 -5 -17 -11 11 -14
-18 -32 -46 -30 -11 1 -26 -5 -33 -12 -11 -12 -11 -14 0 -12 26 3 39 -1 39
-12 0 -8 -4 -8 -13 -1 -7 6 -18 7 -26 2 -8 -4 -21 -6 -29 -2 -10 3 -13 1 -8
-7 5 -8 0 -10 -19 -7 -22 4 -25 3 -15 -10 15 -17 24 -19 14 -2 -4 7 -3 8 5 4
16 -10 4 -26 -14 -19 -9 3 -15 -1 -15 -8 0 -11 -3 -11 -10 1 -9 13 -11 13 -19
0 -5 -8 -7 -18 -5 -22 5 -8 -10 -12 -33 -9 -7 1 -13 -8 -14 -21 l0 -23 -9 23
c-11 26 -16 27 -24 6 -3 -8 -2 -12 4 -9 6 3 10 1 10 -4 0 -11 -9 -14 -43 -14
-10 0 -16 -6 -15 -15 2 -8 -3 -17 -11 -20 -9 -3 -11 0 -7 9 4 8 1 6 -7 -4 -8
-10 -19 -17 -23 -16 -22 4 -32 -2 -30 -18 0 -11 -5 -17 -14 -15 -8 2 -19 -3
-25 -10 -17 -22 -49 -35 -73 -31 -21 3 -22 2 -8 -13 20 -20 21 -19 -11 -22
-15 -1 -30 -8 -35 -15 -6 -9 -8 -8 -8 3 -1 9 -6 5 -15 -10 -7 -14 -19 -25 -27
-26 -32 -2 -38 -5 -38 -15 0 -5 4 -8 9 -4 5 3 12 1 15 -4 3 -4 -2 -8 -12 -8
-39 0 -53 -4 -48 -12 4 -5 -3 -7 -14 -4 -16 4 -19 2 -14 -11 4 -10 1 -16 -8
-16 -20 0 -50 -34 -41 -45 5 -5 0 -3 -10 5 -15 11 -20 11 -26 1 -5 -7 -11 -12
-15 -12 -29 4 -39 0 -28 -11 17 -17 15 -33 -2 -19 -10 9 -16 9 -21 1 -4 -6
-14 -10 -23 -9 -30 3 -35 -1 -22 -16 7 -8 9 -15 4 -16 -5 0 -24 -2 -41 -3 -18
-1 -36 -6 -40 -11 -5 -4 0 -5 9 -2 10 3 20 2 23 -3 4 -6 1 -10 -5 -10 -6 0 -8
-5 -4 -12 5 -9 2 -9 -9 1 -13 11 -20 11 -32 1 -8 -6 -18 -9 -24 -6 -5 3 -12
-1 -15 -10 -3 -8 -2 -12 4 -9 6 3 7 -1 4 -10 -5 -11 -10 -13 -19 -5 -8 7 -15
3 -22 -13 -6 -13 -17 -24 -25 -25 -33 -2 -53 -11 -51 -21 2 -6 -2 -11 -7 -11
-6 0 -20 -10 -32 -22 -14 -14 -19 -16 -15 -5 4 11 0 15 -13 14 -14 -1 -16 -5
-9 -19 8 -14 6 -16 -7 -11 -11 4 -15 2 -11 -4 4 -6 -4 -9 -19 -7 -18 2 -24 -2
-20 -11 7 -19 -14 -31 -50 -30 -19 1 -31 -4 -31 -11 0 -7 5 -10 11 -7 6 4 5 0
-2 -9 -8 -10 -21 -14 -34 -10 -16 4 -19 2 -13 -9 7 -12 6 -12 -7 -1 -14 11
-17 10 -20 -10 -2 -17 -9 -23 -25 -22 -13 1 -23 -3 -23 -8 0 -5 -6 -6 -12 -2
-8 5 -7 0 2 -11 14 -17 13 -18 -2 -12 -10 3 -20 2 -24 -4 -3 -6 -11 -8 -18 -6
-16 6 -40 -20 -23 -26 7 -3 -2 -6 -20 -6 -17 -1 -35 -6 -38 -11 -4 -6 -11 -7
-17 -4 -7 4 -8 2 -4 -5 6 -9 11 -9 22 0 12 10 13 9 8 -5 -3 -9 -11 -16 -18
-16 -8 0 -11 -183 -11 -715 0 -616 2 -717 15 -725 9 -5 19 -5 27 1 7 6 16 8
21 5 5 -3 9 0 9 7 0 7 -8 13 -18 13 -10 0 -15 -5 -12 -10 3 -5 1 -6 -6 -2 -19
12 -5 22 36 24 21 2 42 8 48 14 7 8 6 9 -2 4 -7 -4 -13 -2 -13 3 0 11 6 13 40
15 8 1 15 9 15 18 0 10 5 18 10 19 6 0 18 5 29 11 12 7 16 7 12 0 -4 -6 2 -8
15 -5 16 4 17 8 7 14 -10 7 -11 9 0 9 7 0 11 4 7 9 -3 6 4 8 15 6 11 -2 20 0
20 5 0 5 9 7 20 5 11 -2 18 0 16 4 -3 4 1 17 9 27 8 10 15 14 15 7 0 -7 7 -10
15 -7 11 4 12 11 5 24 -7 13 -5 17 8 17 34 0 43 3 37 12 -3 5 -1 12 4 15 5 4
13 1 17 -5 5 -8 3 -9 -6 -4 -9 5 -11 4 -6 -3 12 -20 29 -13 23 8 -5 21 8 25
73 22 19 -1 21 1 10 8 -8 5 -18 6 -22 4 -4 -3 -8 2 -8 10 0 9 6 13 14 10 8 -3
17 0 21 5 3 6 11 8 17 5 15 -9 30 19 15 29 -8 5 -5 7 8 6 38 -3 47 1 41 17 -3
8 -2 13 3 10 4 -3 17 1 27 8 14 10 24 11 38 4 16 -9 18 -7 13 11 -3 11 -2 21
1 22 30 3 46 10 53 21 7 11 9 11 9 0 0 -7 5 -10 10 -7 8 5 8 11 0 20 -9 11 -6
13 14 11 15 -2 26 1 26 6 0 5 4 6 10 3 5 -3 17 -2 26 3 15 8 15 10 0 15 -10 4
-15 3 -11 -3 3 -6 2 -10 -4 -10 -12 0 -26 20 -14 21 4 0 17 3 28 5 11 3 28 5
38 5 16 0 17 2 5 16 -9 12 -10 15 0 9 7 -4 12 -2 12 6 0 9 12 13 34 12 22 -1
37 3 40 12 6 15 -14 15 -27 -1 -5 -6 -7 -5 -5 3 2 8 8 14 13 14 6 0 18 4 29
10 12 7 16 7 12 0 -4 -6 3 -8 16 -4 12 3 17 7 10 10 -6 2 -12 8 -12 13 0 6 5
7 10 4 6 -3 10 -2 10 3 0 6 7 13 16 16 14 5 15 4 5 -8 -11 -13 -9 -13 13 -3
16 8 21 14 13 19 -8 5 -6 8 6 8 10 0 15 5 12 10 -4 6 7 11 24 11 42 2 48 3 56
10 3 4 -3 6 -14 5 -11 0 -20 4 -20 9 0 6 9 9 19 7 11 -2 20 1 20 7 0 6 6 8 14
5 8 -3 23 0 33 6 16 10 16 11 1 6 -10 -3 -18 -1 -18 3 0 12 29 23 41 15 5 -3
9 -1 9 5 0 6 6 8 14 5 8 -3 17 0 22 7 5 9 2 10 -9 6 -10 -3 -17 -2 -17 3 0 10
10 13 42 13 10 0 15 4 12 8 -3 5 0 9 6 9 7 0 23 9 37 19 13 11 31 17 39 14 8
-3 14 -2 13 3 -4 22 2 33 19 33 38 1 49 5 49 17 0 9 -5 10 -18 3 -14 -7 -17
-6 -13 4 3 9 18 13 40 12 39 -2 51 9 35 29 -9 11 -5 13 19 10 16 -2 30 1 30 6
0 5 8 7 19 5 14 -2 18 1 14 15 -4 13 1 17 19 16 16 -1 24 5 26 20 2 17 8 21
24 16 16 -4 19 -2 13 9 -7 12 -6 12 7 1 12 -10 17 -10 26 0 6 7 11 18 11 23 1
6 9 10 19 10 9 1 16 6 15 13 -2 6 4 9 12 6 8 -4 12 -11 8 -18 -3 -6 -2 -7 3
-3 9 8 10 12 13 38 0 6 10 9 21 6 11 -3 23 -1 26 4 3 5 0 9 -7 9 -9 0 -9 3 0
14 7 8 21 12 31 9 12 -3 20 0 20 7 0 7 8 9 22 4 20 -6 21 -5 9 10 -9 11 -10
16 -2 17 6 1 16 3 21 4 6 1 14 3 19 4 6 0 8 9 6 20 -2 12 2 18 13 18 61 0 77
4 62 13 -11 7 -11 10 -2 10 7 0 11 4 8 9 -3 4 6 7 19 5 14 -1 27 2 31 7 3 5
10 6 16 3 7 -4 8 -2 4 4 -4 7 -2 12 4 12 6 0 8 5 4 11 -4 7 2 9 17 7 17 -2 24
2 23 14 -1 9 7 19 17 21 12 3 17 1 13 -6 -3 -7 1 -4 9 6 10 11 21 15 33 10 17
-6 17 -5 5 10 -7 9 -11 18 -7 18 5 1 24 4 56 8 7 1 7 7 0 20 -9 17 -7 19 12
16 12 -3 27 0 35 6 10 9 13 8 13 -2 0 -11 2 -11 10 1 13 20 12 33 -2 24 -6 -4
-8 -3 -4 4 3 6 17 9 31 6 13 -2 27 1 31 7 5 8 3 9 -6 4 -9 -6 -11 -4 -5 4 5 9
10 10 18 2 6 -6 15 -11 21 -11 6 0 5 5 -2 12 -19 19 -14 25 15 24 19 -1 29 5
33 19 3 14 13 20 33 20 15 -1 33 6 40 14 7 8 7 12 1 8 -6 -3 -11 0 -11 7 0 7
5 13 11 13 33 -1 46 5 46 17 0 8 4 17 9 21 6 3 8 -6 5 -22 -3 -15 -2 -25 1
-21 6 6 12 29 14 53 1 6 5 4 10 -4 6 -10 13 -11 27 -3 11 6 18 13 17 16 -7 14
-2 27 7 21 6 -4 21 4 35 17 13 13 29 24 34 24 6 1 18 2 27 3 10 0 14 7 11 15
-8 19 3 28 19 15 8 -7 14 -6 20 2 5 8 3 10 -7 4 -8 -5 -10 -4 -6 0 11 12 37
15 37 4 0 -4 7 -6 15 -3 13 5 13 8 0 21 -20 20 -19 21 15 18 17 -1 33 1 36 6
3 5 9 7 13 5 4 -3 8 1 8 9 0 13 -3 13 -17 0 -14 -13 -17 -13 -17 0 0 8 4 12 8
10 3 -3 12 2 19 11 10 11 15 12 20 3 5 -7 13 -8 23 -3 15 9 17 13 17 34 0 6 9
10 21 10 13 0 18 4 14 13 -4 6 0 4 8 -6 13 -16 15 -16 28 0 12 15 12 16 -3 10
-10 -3 -18 -2 -18 2 0 5 6 11 13 13 9 4 12 144 12 656 1 569 -1 649 -14 639
-12 -10 -13 -9 -1 13 12 23 12 24 -4 11 -15 -12 -17 -12 -14 0 2 9 -5 13 -19
12 -20 -2 -28 6 -24 29 0 4 -8 5 -19 3 -11 -2 -22 1 -25 6 -4 5 -11 7 -16 3
-6 -3 -13 3 -16 15 -3 11 -9 18 -14 15 -5 -3 -9 -1 -9 4 0 6 -10 8 -22 5 -15
-3 -19 -2 -11 4 7 5 9 13 5 19 -9 13 -45 27 -38 15 4 -5 -5 -4 -18 2 -14 7
-22 17 -18 25 4 11 0 13 -16 7 -14 -4 -22 -2 -22 5 0 6 -4 9 -8 6 -4 -2 -14 0
-22 6 -12 8 -11 9 3 4 12 -4 17 -2 14 6 -2 7 -12 12 -22 10 -10 -2 -14 1 -10
8 4 7 -1 9 -19 4 -21 -5 -25 -3 -21 14 3 16 -1 20 -16 17 -10 -2 -19 1 -19 6
0 6 -9 7 -20 4 -16 -5 -20 -2 -20 15 0 12 -4 19 -8 16 -11 -7 -37 11 -37 25 0
7 -6 14 -13 17 -7 2 -10 -2 -6 -12 3 -9 1 -16 -6 -16 -6 0 -9 4 -6 9 3 4 -4
17 -16 27 -12 11 -18 13 -14 7 4 -8 2 -13 -5 -13 -6 0 -9 8 -7 18 4 15 0 18
-24 17 -24 -2 -29 1 -25 17 3 11 0 18 -10 18 -8 0 -12 -4 -9 -8 3 -5 -1 -9 -9
-9 -8 0 -12 4 -9 9 3 4 2 13 -2 19 -4 8 -9 7 -15 -2 -5 -9 -11 -6 -20 13 -6
15 -17 24 -24 22 -7 -3 -16 0 -20 5 -3 6 -10 9 -15 6 -4 -3 -14 3 -21 12 -10
11 -10 14 -2 9 7 -4 20 -3 29 2 11 6 13 11 5 16 -6 4 -11 2 -11 -4 0 -6 -11
-8 -27 -5 -16 3 -33 7 -40 9 -7 1 -21 11 -33 21 -12 10 -28 20 -36 21 -19 3
-32 14 -16 14 7 0 12 4 12 9 0 5 -8 8 -17 7 -21 -3 -46 26 -32 35 5 3 -6 6
-26 6 -20 0 -41 6 -48 13 -9 9 -9 11 0 6 6 -3 15 -1 19 5 4 7 3 9 -4 5 -6 -3
-13 -2 -17 3 -3 6 -12 8 -20 4 -8 -3 -15 0 -15 7 0 9 -3 10 -14 1 -10 -9 -17
-7 -27 6 -9 11 -10 14 -1 9 7 -4 12 -2 12 4 0 6 6 8 13 4 6 -4 8 -3 4 2 -4 4
-20 9 -35 10 -41 2 -42 3 -36 19 6 14 -11 20 -45 16 -7 -2 -10 2 -6 8 4 7 0 8
-11 4 -13 -5 -16 -3 -11 10 3 9 3 17 -1 18 -4 0 -16 3 -27 5 -11 3 -26 6 -34
6 -8 1 -16 10 -19 20 -3 13 -11 18 -23 15 -14 -4 -19 0 -19 15 0 10 -4 16 -10
13 -5 -3 -10 -1 -10 4 0 6 -13 11 -29 11 -20 0 -30 6 -34 20 -4 14 -14 20 -34
20 -22 0 -25 2 -13 10 11 7 11 10 2 10 -7 0 -11 4 -8 8 3 5 -1 9 -8 9 -8 0
-12 -7 -9 -16 2 -9 -2 -7 -9 5 -7 12 -18 19 -24 17 -6 -2 -14 6 -17 17 -3 13
-12 20 -23 18 -10 -2 -18 4 -20 15 -1 11 -6 22 -10 25 -4 4 -4 -1 -1 -10 5
-14 1 -18 -16 -18 -17 0 -19 2 -7 10 15 9 17 8 -36 25 -9 3 -12 10 -8 17 5 8
2 9 -9 5 -10 -4 -16 -2 -14 6 1 6 -10 12 -25 12 -14 0 -30 4 -35 9 -4 5 -3 6
4 2 6 -3 14 -2 17 3 5 7 -35 22 -69 25 -13 2 -19 16 -9 24 4 4 4 0 -1 -8 -5
-8 -4 -12 0 -7 14 12 15 38 2 30 -17 -10 -47 -11 -53 -1 -3 4 -11 5 -17 1 -8
-4 -7 -1 1 9 14 18 6 27 -20 23 -10 -2 -18 1 -18 6 0 5 -5 8 -11 6 -6 -1 -14
5 -16 13 -3 10 -2 11 4 3 6 -8 14 -9 23 -3 16 10 8 12 -51 13 -21 0 -25 5 -23
24 2 24 -11 32 -19 11 -4 -10 -6 -10 -6 0 -1 6 -12 12 -25 12 -14 0 -28 5 -32
11 -4 8 1 9 17 5 21 -6 22 -5 6 4 -10 6 -30 14 -45 16 -14 3 -31 9 -38 15 -6
5 -14 6 -18 2 -4 -4 -4 0 0 10 6 15 -8 22 -38 19 -3 -1 -9 5 -12 14 -5 12 -2
13 17 4 22 -11 22 -11 2 5 -11 9 -28 14 -37 11 -10 -2 -21 0 -24 5 -3 5 -9 7
-14 4 -5 -3 -12 0 -16 6 -4 7 -3 9 3 6 6 -4 13 -1 16 6 3 8 -4 14 -17 14 -54
4 -74 9 -69 16 3 5 11 6 19 3 8 -3 11 0 8 9 -3 8 -12 11 -20 8 -8 -3 -14 -1
-14 4 0 13 -30 12 -31 -1 -1 -6 -4 0 -8 14 -4 14 -13 25 -21 25 -25 1 -44 16
-30 25 8 5 7 9 -5 13 -9 4 -13 3 -10 -3 3 -6 1 -10 -5 -10 -6 0 -8 -5 -4 -12
4 -7 3 -8 -4 -4 -6 4 -8 14 -5 23 5 12 2 15 -9 10 -9 -3 -24 1 -35 10 -16 13
-16 14 -1 9 10 -3 20 -1 23 5 4 5 3 9 -2 8 -4 -1 -10 0 -13 1 -3 1 -20 3 -38
4 -18 1 -38 8 -45 15 -10 11 -7 12 12 6 16 -5 21 -4 17 4 -4 6 -14 11 -22 11
-9 0 -12 5 -8 12 5 7 3 8 -7 2 -20 -12 -38 -14 -45 -3 -3 5 0 9 7 9 9 0 8 4
-1 15 -6 8 -15 14 -18 13 -4 0 -20 0 -37 1 -21 1 -26 4 -16 10 11 7 9 10 -8
16 -11 3 -21 10 -21 14 0 5 -13 7 -29 6 -22 -2 -28 1 -24 12 4 11 8 12 13 3 5
-9 9 -9 14 -1 6 9 -7 16 -17 9 -2 -2 -12 4 -22 12 -11 8 -16 10 -11 3 5 -9 2
-11 -8 -7 -9 3 -14 9 -12 13 2 3 -2 15 -10 26 -10 13 -14 15 -14 4 -1 -9 -8
-5 -22 11 -14 17 -19 19 -15 7 4 -10 3 -16 -2 -12 -5 3 -12 -1 -15 -7 -3 -7
-3 -1 0 13 6 27 -9 48 -21 29 -4 -6 -11 -8 -16 -4 -5 3 -6 10 -3 16 5 8 1 9
-11 4 -15 -5 -16 -4 -6 8 10 12 8 14 -14 11 -18 -2 -25 2 -21 11 9 24 -57 44
-70 22z m55 -19 c-16 -10 -23 -4 -14 10 3 6 11 8 17 5 6 -4 5 -9 -3 -15z
m2051 -1280 c0 -6 -4 -7 -10 -4 -5 3 -10 11 -10 16 0 6 5 7 10 4 6 -3 10 -11
10 -16z m-386 -1324 c-4 -8 -11 -12 -16 -9 -6 4 -5 10 3 15 19 12 19 11 13 -6z
m376 -1185 c-6 -11 -13 -20 -16 -20 -2 0 0 9 6 20 6 11 13 20 16 20 2 0 0 -9
-6 -20z m-510 -320 c0 -5 -2 -10 -4 -10 -3 0 -8 5 -11 10 -3 6 -1 10 4 10 6 0
11 -4 11 -10z m-240 -144 c0 -3 -4 -8 -10 -11 -5 -3 -10 -1 -10 4 0 6 5 11 10
11 6 0 10 -2 10 -4z m-1040 -651 c0 -12 -19 -12 -23 0 -4 9 -1 12 9 8 7 -3 14
-7 14 -8z"/>
<path d="M6020 7490 c-8 -5 -11 -13 -6 -17 5 -4 11 -2 13 5 3 6 10 9 15 6 7
-4 8 -2 4 4 -9 14 -7 14 -26 2z"/>
<path d="M4640 6995 c0 -7 30 -13 34 -7 3 4 -4 9 -15 9 -10 1 -19 0 -19 -2z"/>
<path d="M7745 6940 c3 -5 11 -10 16 -10 6 0 7 5 4 10 -3 6 -11 10 -16 10 -6
0 -7 -4 -4 -10z"/>
<path d="M2096 6903 c-6 -14 -5 -15 5 -6 7 7 10 15 7 18 -3 3 -9 -2 -12 -12z"/>
<path d="M4615 6801 c-3 -5 -2 -12 3 -15 5 -3 9 1 9 9 0 17 -3 19 -12 6z"/>
<path d="M4625 6760 c6 -10 4 -12 -11 -6 -15 6 -17 5 -6 -5 9 -9 15 -10 23 -2
8 8 7 13 -2 18 -8 6 -10 4 -4 -5z"/>
<path d="M1850 6744 c0 -8 5 -12 10 -9 6 4 8 11 5 16 -9 14 -15 11 -15 -7z"/>
<path d="M1575 6581 c-3 -5 -2 -12 3 -15 5 -3 9 1 9 9 0 17 -3 19 -12 6z"/>
<path d="M5863 6533 c-7 -3 -13 -8 -13 -13 0 -10 24 -7 28 4 5 11 -1 14 -15 9z"/>
<path d="M4564 6510 c0 -13 4 -16 10 -10 7 7 7 13 0 20 -6 6 -10 3 -10 -10z"/>
<path d="M1326 6427 c3 -10 9 -15 12 -12 3 3 0 11 -7 18 -10 9 -11 8 -5 -6z"/>
<path d="M8580 6422 c0 -5 7 -9 15 -9 8 0 12 4 9 9 -3 4 -9 8 -15 8 -5 0 -9
-4 -9 -8z"/>
<path d="M9020 6145 c7 -8 17 -12 22 -9 6 4 5 10 -3 15 -22 14 -33 10 -19 -6z"/>
<path d="M805 6100 c3 -5 8 -10 11 -10 2 0 4 5 4 10 0 6 -5 10 -11 10 -5 0 -7
-4 -4 -10z"/>
<path d="M5783 6053 c-7 -3 -13 -8 -13 -13 0 -10 24 -7 28 4 5 11 -1 14 -15 9z"/>
<path d="M4489 6027 c6 -8 7 -18 3 -22 -4 -5 -1 -5 6 -1 10 6 10 11 1 22 -6 8
-14 14 -16 14 -3 0 0 -6 6 -13z"/>
<path d="M490 5910 c-9 -6 -10 -10 -3 -10 6 0 15 5 18 10 8 12 4 12 -15 0z"/>
<path d="M9423 5905 c0 -8 4 -12 9 -9 5 3 6 10 3 15 -9 13 -12 11 -12 -6z"/>
<path d="M7130 5860 c0 -5 5 -10 11 -10 5 0 7 5 4 10 -3 6 -8 10 -11 10 -2 0
-4 -4 -4 -10z"/>
<path d="M370 5829 c0 -5 5 -7 10 -4 6 3 10 8 10 11 0 2 -4 4 -10 4 -5 0 -10
-5 -10 -11z"/>
<path d="M7240 5786 c0 -2 7 -7 16 -10 8 -3 12 -2 9 4 -6 10 -25 14 -25 6z"/>
<path d="M9743 5705 c0 -7 6 -11 14 -8 7 3 13 6 13 8 0 2 -6 5 -13 8 -8 3 -14
-1 -14 -8z"/>
<path d="M5703 5613 c-3 -10 -7 -20 -9 -23 -1 -4 7 -12 19 -20 20 -12 21 -12
8 3 -10 13 -11 20 -2 31 8 10 9 16 1 21 -5 3 -13 -2 -17 -12z"/>
<path d="M7770 5460 c-9 -6 -10 -10 -3 -10 6 0 15 5 18 10 8 12 4 12 -15 0z"/>
<path d="M2060 5410 c-12 -8 -10 -10 8 -10 13 0 20 4 17 10 -7 12 -6 12 -25 0z"/>
<path d="M1933 5330 c-1 -16 1 -17 12 -7 7 6 11 15 8 20 -8 13 -19 7 -20 -13z"/>
<path d="M4385 5320 c6 -10 4 -12 -11 -6 -15 6 -17 5 -6 -5 9 -9 15 -10 23 -2
8 8 7 13 -2 18 -8 6 -10 4 -4 -5z"/>
<path d="M1736 5221 c-3 -5 1 -11 9 -15 8 -3 15 -1 15 4 0 13 -18 22 -24 11z"/>
<path d="M5617 5117 c-3 -8 0 -14 7 -14 7 0 13 6 13 14 0 7 -4 13 -8 13 -4 0
-9 -6 -12 -13z"/>
<path d="M1550 5095 c-7 -9 -10 -18 -7 -21 3 -3 10 4 17 15 13 25 8 27 -10 6z"/>
<path d="M8486 5009 c3 -5 9 -7 14 -4 4 3 11 0 13 -5 3 -6 4 -5 3 1 -1 7 -10
13 -19 15 -9 1 -15 -2 -11 -7z"/>
<path d="M4287 4821 c8 -9 9 -21 3 -37 -7 -17 -6 -22 3 -18 19 7 18 41 -1 55
-14 11 -15 11 -5 0z"/>
<path d="M1737 4707 c-3 -8 3 -14 16 -15 12 0 17 2 12 6 -6 4 -13 11 -16 15
-4 4 -9 2 -12 -6z"/>
<path d="M7970 4590 c0 -5 5 -10 11 -10 5 0 7 5 4 10 -3 6 -8 10 -11 10 -2 0
-4 -4 -4 -10z"/>
<path d="M7654 4389 c-8 -14 14 -19 25 -6 8 10 7 14 -5 14 -8 0 -17 -4 -20 -8z"/>
<path d="M5505 4381 c-6 -11 13 -26 22 -17 4 3 1 6 -6 6 -7 0 -9 5 -6 10 3 6
4 10 1 10 -3 0 -7 -4 -11 -9z"/>
<path d="M7326 4185 c-2 -6 2 -12 10 -12 7 0 15 6 18 12 2 6 -2 12 -10 12 -7
0 -15 -6 -18 -12z"/>
<path d="M5455 4100 c3 -5 8 -10 11 -10 2 0 4 5 4 10 0 6 -5 10 -11 10 -5 0
-7 -4 -4 -10z"/>
<path d="M9545 4090 c-3 -5 -2 -10 4 -10 5 0 13 5 16 10 3 6 2 10 -4 10 -5 0
-13 -4 -16 -10z"/>
<path d="M4140 3870 c-9 -6 -10 -10 -3 -10 6 0 15 5 18 10 8 12 4 12 -15 0z"/>
<path d="M8780 3621 c0 -10 19 -25 25 -20 1 2 -3 10 -11 17 -8 7 -14 8 -14 3z"/>
<path d="M1126 3608 c3 -5 10 -6 15 -3 13 9 11 12 -6 12 -8 0 -12 -4 -9 -9z"/>
<path d="M1330 3490 c-9 -6 -10 -10 -3 -10 6 0 15 5 18 10 8 12 4 12 -15 0z"/>
<path d="M1446 3408 c3 -5 10 -6 15 -3 13 9 11 12 -6 12 -8 0 -12 -4 -9 -9z"/>
<path d="M4055 3390 c-3 -5 -1 -10 4 -10 6 0 11 5 11 10 0 6 -2 10 -4 10 -3 0
-8 -4 -11 -10z"/>
<path d="M1530 3370 c0 -5 5 -10 11 -10 5 0 7 5 4 10 -3 6 -8 10 -11 10 -2 0
-4 -4 -4 -10z"/>
<path d="M5293 3172 c2 -26 4 -27 23 -8 9 9 10 17 4 21 -5 3 -10 0 -10 -7 0
-9 -3 -9 -10 2 -7 12 -9 10 -7 -8z"/>
<path d="M4017 3173 c-10 -9 -9 -23 1 -23 5 0 9 7 9 15 0 17 -1 18 -10 8z"/>
<path d="M2170 2972 c6 -13 14 -21 18 -18 3 4 -2 14 -12 24 -18 16 -18 16 -6
-6z"/>
<path d="M7706 2942 c-3 -5 1 -9 9 -9 8 0 12 4 9 9 -3 4 -7 8 -9 8 -2 0 -6 -4
-9 -8z"/>
<path d="M3970 2896 c7 -7 14 -6 21 1 9 9 7 12 -9 10 -14 -1 -18 -5 -12 -11z"/>
<path d="M2490 2779 c0 -5 -6 -7 -12 -3 -7 4 -10 3 -5 -1 4 -5 16 -9 27 -10
15 -1 17 1 9 12 -14 16 -19 17 -19 2z"/>
<path d="M7425 2770 c-3 -5 -1 -10 4 -10 6 0 11 5 11 10 0 6 -2 10 -4 10 -3 0
-8 -4 -11 -10z"/>
<path d="M2600 2696 c0 -2 7 -7 16 -10 8 -3 12 -2 9 4 -6 10 -25 14 -25 6z"/>
<path d="M3932 2649 c-1 -22 -4 -45 -8 -50 -3 -5 0 -9 5 -9 12 0 14 11 11 49
-1 17 2 21 12 15 9 -6 9 -3 -2 12 -8 10 -15 20 -16 22 0 1 -1 -16 -2 -39z"/>
<path d="M2801 2577 c-8 -10 -7 -14 2 -14 8 0 14 6 14 14 0 7 -1 13 -2 13 -2
0 -8 -6 -14 -13z"/>
<path d="M6970 2505 c0 -2 6 -8 13 -14 10 -8 14 -7 14 2 0 8 -6 14 -14 14 -7
0 -13 -1 -13 -2z"/>
<path d="M3895 2430 c-3 -5 -1 -10 4 -10 6 0 11 5 11 10 0 6 -2 10 -4 10 -3 0
-8 -4 -11 -10z"/>
<path d="M3810 1960 c-12 -7 -10 -9 7 -7 12 0 19 5 17 9 -6 10 -6 10 -24 -2z"/>
<path d="M4188 1263 c6 -2 9 -10 6 -15 -4 -7 -2 -8 5 -4 13 9 5 26 -12 25 -9
0 -8 -2 1 -6z"/>
<path d="M4268 1263 c6 -2 9 -10 6 -15 -4 -7 -2 -8 5 -4 13 9 5 26 -12 25 -9
0 -8 -2 1 -6z"/>
<path d="M4348 1263 c6 -2 9 -10 6 -15 -4 -7 -2 -8 5 -4 13 9 5 26 -12 25 -9
0 -8 -2 1 -6z"/>
<path d="M4428 1263 c6 -2 9 -10 6 -15 -4 -7 -2 -8 5 -4 13 9 5 26 -12 25 -9
0 -8 -2 1 -6z"/>
<path d="M3748 1243 c7 -3 16 -2 19 1 4 3 -2 6 -13 5 -11 0 -14 -3 -6 -6z"/>
</g>
</svg>
