<?xml version="1.0" standalone="no"?>
<!DOCTYPE svg PUBLIC "-//W3C//DTD SVG 20010904//EN"
 "http://www.w3.org/TR/2001/REC-SVG-20010904/DTD/svg10.dtd">
<svg version="1.0" xmlns="http://www.w3.org/2000/svg"
 width="512.000000pt" height="512.000000pt" viewBox="0 0 512.000000 512.000000"
 preserveAspectRatio="xMidYMid meet">
<metadata>
Created by potrace 1.11, written by Peter Selinger 2001-2013
</metadata>
<g transform="translate(0.000000,512.000000) scale(0.100000,-0.100000)"
fill="#000000" stroke="none">
<path d="M2615 4467 c5 -10 1 -15 -12 -14 -10 1 -20 5 -23 9 -3 4 -12 3 -19
-1 -14 -9 -17 -26 -20 -89 0 -18 -4 -31 -8 -29 -5 3 -9 -15 -10 -39 -1 -25 -7
-52 -15 -61 -8 -11 -8 -14 -1 -10 8 5 11 1 10 -12 0 -11 -4 -18 -8 -15 -8 4
-8 0 -9 -69 0 -24 -4 -35 -11 -31 -7 4 -6 -2 1 -16 8 -15 8 -20 1 -16 -7 4
-11 -2 -11 -16 0 -60 -6 -106 -12 -102 -4 3 -7 -4 -7 -13 -1 -43 -4 -59 -13
-70 -6 -7 -5 -14 3 -18 8 -6 8 -10 -1 -15 -7 -5 -13 -23 -12 -41 0 -18 -5 -40
-11 -48 -9 -12 -9 -13 1 -7 6 4 12 2 12 -3 0 -6 -5 -11 -11 -11 -6 0 -9 -9 -6
-20 3 -11 2 -22 -2 -24 -4 -3 -7 -24 -6 -48 0 -24 -4 -46 -9 -50 -5 -3 -10
-29 -10 -58 -1 -33 -6 -54 -16 -60 -11 -7 -12 -10 -2 -10 7 0 10 -5 6 -11 -4
-7 -8 -30 -10 -52 -2 -22 -9 -44 -16 -49 -12 -7 -4 -12 15 -9 4 1 0 -10 -9
-24 -9 -14 -13 -25 -10 -25 4 0 2 -8 -3 -18 -7 -13 -6 -23 1 -30 8 -8 9 -12 1
-12 -6 0 -14 -7 -17 -16 -4 -10 -2 -13 7 -8 9 6 9 5 0 -7 -10 -12 -10 -18 0
-29 9 -10 9 -11 -1 -5 -8 4 -13 2 -11 -6 4 -36 -2 -60 -13 -53 -10 6 -10 4 0
-8 10 -12 10 -18 1 -23 -8 -6 -7 -10 2 -16 9 -5 10 -9 2 -9 -6 0 -10 -13 -9
-30 1 -16 -1 -30 -5 -30 -4 0 -10 -7 -13 -16 -3 -8 -2 -12 4 -9 6 3 10 1 10
-4 0 -6 -4 -11 -9 -11 -4 0 -8 -8 -8 -17 0 -57 -4 -84 -12 -79 -12 8 -8 -27 4
-36 7 -5 6 -8 0 -8 -6 0 -12 -10 -13 -22 -5 -37 -9 -63 -11 -63 -1 0 -4 -19
-6 -42 -2 -23 -9 -51 -15 -62 -7 -14 -7 -22 0 -26 8 -5 8 -11 0 -20 -6 -8 -10
-22 -8 -33 2 -10 -4 -27 -12 -37 -9 -11 -10 -16 -2 -11 6 4 12 3 12 -3 0 -5
-6 -12 -12 -14 -10 -4 -9 -6 1 -6 11 -1 11 -4 0 -18 -8 -9 -13 -18 -11 -20 6
-9 1 -73 -6 -69 -5 3 -9 -1 -9 -9 0 -8 5 -11 10 -8 6 4 7 1 1 -8 -11 -18 -15
-37 -15 -72 0 -15 -4 -25 -8 -23 -4 3 -8 -1 -8 -9 0 -8 5 -11 11 -8 8 5 8 3 0
-8 -6 -8 -11 -27 -12 -43 -1 -16 -8 -36 -15 -44 -9 -13 -9 -14 1 -8 6 4 12 2
12 -3 0 -6 -5 -11 -11 -11 -8 0 -7 -6 2 -17 10 -11 10 -14 2 -9 -10 5 -13 -5
-13 -41 0 -27 -4 -53 -10 -59 -5 -5 -11 -33 -12 -62 -2 -29 -7 -52 -12 -52 -4
0 -2 -8 5 -17 10 -11 10 -14 2 -9 -9 5 -13 -2 -13 -24 0 -17 -5 -40 -10 -51
-7 -13 -7 -19 0 -19 5 0 10 -5 10 -11 0 -5 -4 -7 -10 -4 -6 3 -7 -1 -4 -9 4
-10 1 -16 -7 -16 -12 0 -12 -2 0 -9 9 -6 10 -11 3 -15 -6 -4 -8 -14 -5 -23 5
-12 3 -14 -8 -8 -11 6 -11 5 -2 -5 8 -9 9 -20 2 -38 -7 -18 -6 -28 3 -34 10
-6 9 -8 -4 -8 -14 0 -16 -8 -13 -37 2 -21 0 -40 -5 -43 -4 -3 -9 -23 -11 -45
-1 -22 -8 -46 -13 -54 -9 -12 -8 -13 4 -6 13 8 13 6 2 -8 -8 -9 -11 -21 -7
-27 3 -5 0 -10 -7 -10 -9 0 -9 -3 2 -10 8 -5 10 -10 5 -10 -6 0 -11 -8 -12
-17 -1 -10 -5 -36 -9 -58 -4 -22 -7 -57 -8 -78 0 -20 -4 -37 -9 -37 -4 0 -5
-4 -2 -10 3 -5 2 -10 -3 -10 -5 0 -8 -14 -6 -31 2 -17 -1 -39 -6 -50 -8 -14
-7 -19 2 -19 6 0 4 -6 -7 -13 -13 -10 -15 -16 -6 -21 6 -4 8 -13 4 -19 -5 -7
-9 -29 -9 -51 -1 -21 -8 -42 -15 -47 -12 -7 -11 -9 1 -9 9 0 11 -3 5 -8 -6 -4
-11 -15 -12 -24 0 -10 -1 -32 -2 -49 -1 -20 -5 -28 -13 -23 -6 4 -8 3 -4 -4 3
-6 2 -21 -3 -35 -7 -18 -6 -30 5 -43 9 -11 12 -13 8 -5 -5 10 -3 12 7 5 8 -5
147 -9 309 -9 162 0 301 -4 307 -8 9 -6 11 -3 6 9 -5 13 -2 16 8 12 11 -4 14
5 13 43 0 27 3 49 8 49 4 0 8 5 8 11 0 5 -5 7 -11 3 -6 -3 -5 4 3 17 7 13 13
40 13 59 0 19 7 41 15 48 13 12 12 13 -5 8 -20 -6 -20 -6 -1 9 11 8 14 15 7
15 -7 0 -10 4 -7 8 3 5 8 24 11 43 3 18 11 36 17 40 7 4 5 8 -3 11 -10 4 -11
8 -3 19 6 8 10 33 10 56 -1 23 2 39 6 37 8 -5 9 2 12 78 0 27 5 48 9 48 5 0 5
4 2 10 -3 5 -2 10 2 10 5 0 8 15 8 33 -2 42 4 59 19 50 6 -4 6 0 -2 9 -10 13
-10 17 0 21 8 3 5 6 -7 7 -17 0 -18 2 -4 10 10 6 16 25 18 57 1 26 7 51 14 55
9 6 8 8 -3 8 -9 0 -11 3 -4 8 6 4 11 27 13 52 1 24 6 47 10 50 5 3 9 14 9 25
-1 55 3 86 10 81 5 -3 9 1 9 9 0 8 -4 12 -9 9 -4 -3 -8 0 -8 5 0 6 4 11 8 11
5 0 10 24 12 53 1 28 3 60 3 69 1 9 5 14 9 12 7 -4 13 62 9 89 0 4 5 7 11 7 9
0 8 4 -2 10 -8 5 -10 10 -4 10 7 0 12 20 14 48 3 77 4 81 14 75 5 -4 7 3 4 15
-4 12 -3 22 1 22 4 0 7 10 6 23 -1 12 3 28 9 36 7 10 8 13 0 8 -6 -3 -11 0
-11 8 0 8 4 12 9 9 4 -3 9 11 9 30 1 36 4 54 9 59 1 1 4 21 5 45 2 23 8 49 14
56 9 11 9 16 0 21 -8 6 -7 10 2 16 12 8 12 10 0 18 -9 6 -9 10 -2 12 6 2 12
18 13 34 1 17 6 36 12 44 9 12 8 13 -4 6 -12 -7 -13 -6 -3 6 7 8 12 24 12 34
1 45 4 61 15 74 9 12 8 13 -4 6 -13 -8 -13 -7 -1 8 11 14 11 17 0 18 -8 0 -5
4 6 9 11 5 14 9 6 9 -10 1 -11 4 -2 14 6 8 8 16 5 20 -3 3 -1 15 6 26 8 15 8
21 0 21 -6 0 -4 7 4 16 21 21 20 30 -1 13 -15 -13 -15 -11 1 19 9 17 14 32 11
32 -3 0 -1 10 6 21 6 12 7 19 1 15 -11 -7 -11 26 0 34 4 3 9 21 10 40 2 19 8
38 13 42 6 5 5 8 -4 8 -11 0 -11 3 -1 15 6 8 9 19 6 24 -4 5 -3 12 2 15 5 3 7
19 6 35 -1 17 3 31 8 31 6 0 8 6 5 14 -3 7 0 19 6 25 9 9 7 11 -8 6 -18 -6
-18 -5 -4 7 9 7 17 22 17 33 -1 52 2 66 15 59 6 -4 3 3 -8 16 -16 18 -16 22
-4 18 12 -5 16 0 15 20 -1 15 2 32 7 39 4 6 3 14 -2 17 -6 4 -8 13 -5 21 4 8
9 13 13 11 3 -2 7 12 8 32 2 70 3 73 16 66 8 -5 8 -2 -2 9 -9 12 -10 17 -2 17
9 0 9 5 0 21 -9 17 -8 20 2 14 9 -6 11 -2 7 13 -4 12 -1 22 4 22 6 0 4 8 -3
17 -12 15 -12 16 6 9 16 -6 17 -5 8 5 -8 7 -9 18 -4 28 11 19 11 21 11 67 0
25 3 33 13 28 8 -5 8 -2 -2 9 -7 9 -9 17 -3 17 5 0 9 14 8 31 -1 16 1 32 5 35
5 3 5 12 2 21 -4 11 -2 14 5 9 12 -7 9 25 -4 46 -5 7 -3 8 5 3 9 -5 12 2 10
27 -2 18 0 39 5 46 4 6 4 17 0 24 -5 7 -3 8 6 3 8 -5 11 -3 8 6 -3 8 -1 25 4
38 5 15 5 27 0 30 -6 4 -5 16 1 31 13 32 17 55 20 109 1 25 8 46 15 49 8 2 9
9 2 23 -8 13 -7 19 0 19 7 0 6 6 -3 14 -14 15 -40 16 -53 3 -4 -4 -13 1 -21
11 -8 9 -12 11 -8 5 4 -10 -6 -12 -40 -9 -25 2 -48 -1 -51 -6 -3 -5 -13 -1
-21 9 -8 10 -12 12 -8 6 4 -10 -6 -12 -40 -9 -25 2 -48 -1 -51 -6 -3 -5 -13
-1 -21 9 -8 10 -12 12 -8 6 4 -10 -6 -12 -40 -9 -25 2 -48 -1 -51 -6 -3 -5
-13 -1 -21 9 -8 10 -12 13 -8 6 4 -9 -6 -11 -37 -9 -24 1 -49 -1 -55 -7 -9 -6
-13 -5 -13 3 0 8 -3 10 -7 7 -3 -4 -12 -2 -20 5 -11 8 -12 7 -8 -5z"/>
<path d="M1563 3856 c-23 -13 -45 -21 -49 -18 -4 4 -4 2 -1 -4 4 -7 -6 -17
-23 -24 -17 -7 -30 -16 -30 -21 0 -5 -6 -9 -13 -9 -7 0 -23 -9 -34 -19 -12
-11 -24 -17 -27 -14 -3 4 -6 1 -6 -5 0 -6 -7 -9 -17 -5 -9 4 -14 2 -11 -3 5
-8 -23 -43 -29 -36 -10 8 -23 -1 -23 -15 0 -15 -2 -16 -10 -3 -6 10 -10 11
-10 3 0 -7 -7 -13 -15 -13 -8 0 -15 -4 -15 -10 0 -5 -7 -10 -15 -10 -8 0 -15
-4 -15 -9 0 -5 -8 -11 -17 -15 -33 -11 -82 -43 -76 -50 6 -6 -21 -9 -32 -3 -2
1 -12 -8 -20 -20 -9 -13 -25 -23 -36 -23 -11 0 -18 -4 -15 -9 5 -7 -27 -22
-42 -20 -2 0 -9 -7 -16 -16 -6 -9 -21 -17 -33 -17 -13 -1 -19 -7 -16 -15 3 -8
2 -13 -3 -12 -20 3 -54 -14 -54 -27 0 -8 -3 -13 -7 -12 -5 1 -18 -3 -29 -10
-12 -6 -24 -8 -28 -5 -3 3 -6 -1 -6 -11 0 -9 -4 -14 -10 -11 -5 3 -10 1 -10
-4 0 -6 -9 -11 -20 -11 -10 0 -23 -6 -27 -14 -4 -8 -12 -16 -18 -18 -5 -2 -9
-7 -7 -11 1 -5 -3 -5 -9 -1 -6 3 -15 0 -20 -7 -4 -8 -13 -15 -19 -15 -5 -1
-15 -2 -21 -3 -5 0 -7 -6 -3 -13 5 -8 2 -9 -9 -5 -10 3 -17 2 -17 -3 0 -6 -16
-18 -35 -27 -19 -9 -32 -19 -30 -23 2 -4 -2 -7 -10 -8 -8 -1 -22 -3 -30 -4 -8
-1 -13 -4 -11 -7 4 -8 -31 -41 -37 -35 -2 2 -16 -2 -30 -9 -15 -8 -24 -17 -20
-20 3 -4 -1 -7 -10 -7 -8 0 -17 -4 -19 -9 -1 -5 -10 -11 -18 -13 -8 -2 -21 -9
-28 -16 -8 -7 -18 -10 -23 -7 -5 4 -9 -1 -9 -10 0 -9 -4 -13 -10 -10 -5 3 -10
1 -10 -5 0 -6 -4 -9 -9 -5 -5 3 -16 -3 -23 -12 -7 -10 -20 -19 -28 -21 -8 -2
-18 -9 -22 -15 -4 -7 -8 -8 -8 -4 0 7 -11 0 -45 -31 -8 -7 -19 -11 -24 -8 -5
3 -11 -1 -15 -9 -3 -8 -10 -15 -16 -15 -6 0 -18 -7 -27 -15 -8 -8 -18 -13 -23
-10 -5 3 -7 -13 -6 -35 2 -22 -1 -40 -6 -40 -5 0 -5 -7 0 -17 6 -9 6 -29 2
-45 -5 -15 -5 -28 -1 -28 3 0 7 -9 7 -20 0 -11 -5 -20 -10 -20 -6 0 -5 -5 1
-11 7 -7 8 -21 3 -40 -5 -16 -5 -29 -1 -29 3 0 7 -9 7 -20 0 -11 -5 -20 -10
-20 -6 0 -5 -5 1 -11 7 -7 8 -21 3 -40 -5 -16 -5 -29 -1 -29 3 0 7 -9 7 -20 0
-11 -5 -20 -10 -20 -6 0 -5 -5 1 -11 7 -7 8 -21 3 -40 -5 -16 -5 -29 -1 -29 3
0 7 -9 7 -20 0 -11 -5 -20 -10 -20 -6 0 -5 -5 1 -11 7 -7 8 -21 3 -40 -5 -16
-5 -29 -1 -29 5 0 7 -11 6 -25 -3 -19 1 -25 16 -25 10 0 19 -4 19 -10 0 -5 7
-10 16 -10 8 0 12 -5 9 -10 -4 -6 -3 -10 2 -9 22 4 43 -2 41 -12 -2 -6 6 -13
16 -15 10 -1 23 -9 27 -16 5 -7 9 -9 9 -5 0 5 7 2 15 -5 33 -30 50 -43 55 -43
3 0 4 -3 3 -7 -1 -3 5 -5 14 -4 10 2 28 -8 41 -21 13 -13 28 -21 33 -18 5 4
12 -1 15 -9 3 -9 10 -13 15 -10 5 3 12 -2 15 -10 3 -9 12 -16 20 -16 8 0 22
-8 32 -18 10 -9 25 -18 33 -20 8 -2 23 -11 34 -21 11 -10 28 -21 38 -24 9 -4
17 -11 17 -16 0 -5 9 -8 20 -6 11 2 19 -1 17 -8 -1 -7 4 -11 12 -9 7 1 21 -6
30 -17 10 -11 24 -21 32 -23 8 -2 22 -12 32 -22 9 -10 17 -15 17 -11 0 4 10 0
22 -11 12 -10 18 -13 13 -5 -5 10 -4 12 3 7 7 -4 12 -14 12 -22 0 -8 3 -13 8
-12 15 4 52 -14 47 -23 -5 -8 7 -11 31 -8 3 0 14 -9 23 -20 10 -12 26 -21 35
-21 9 0 16 -4 16 -9 0 -5 15 -15 34 -22 24 -9 32 -17 28 -27 -4 -11 -1 -13 8
-7 8 5 18 1 27 -11 8 -10 15 -18 16 -17 6 7 46 -11 41 -18 -3 -5 2 -9 11 -9
10 0 31 -11 47 -25 16 -14 34 -23 39 -19 5 3 9 0 9 -5 0 -6 6 -11 14 -11 8 0
17 -7 20 -16 3 -8 10 -12 16 -9 5 3 10 2 10 -3 0 -6 13 -15 29 -20 16 -6 39
-20 50 -31 12 -12 23 -20 26 -18 2 1 13 -6 25 -15 11 -10 20 -14 20 -10 0 4 5
-1 11 -11 6 -9 14 -15 20 -12 5 4 9 1 9 -5 0 -6 5 -8 10 -5 6 3 13 -1 16 -10
4 -9 13 -14 21 -11 8 3 11 1 8 -4 -6 -9 8 -14 28 -11 4 0 6 -2 5 -6 -2 -5 0
-9 5 -10 4 -2 17 -12 29 -23 45 -41 48 -32 48 140 0 121 -3 160 -12 160 -10 0
-10 2 0 9 20 12 13 437 -7 433 -8 -2 -17 1 -20 5 -3 5 -23 17 -43 28 -21 11
-38 23 -38 28 0 4 -5 5 -10 2 -6 -3 -13 1 -16 9 -3 9 -15 16 -25 16 -10 0 -19
5 -19 10 0 6 -5 10 -11 10 -6 0 -29 14 -50 31 -22 17 -44 27 -51 23 -8 -5 -9
-2 -5 10 4 9 3 15 -1 13 -11 -7 -72 29 -64 38 4 4 -3 5 -15 2 -16 -3 -23 -1
-23 9 0 8 -7 14 -15 14 -8 0 -15 5 -15 10 0 6 -9 10 -20 10 -11 0 -20 4 -20 9
0 5 -23 20 -51 34 -30 14 -45 27 -37 30 7 3 1 6 -13 6 -15 1 -30 8 -33 17 -3
8 -10 12 -16 9 -5 -3 -10 -1 -10 4 0 6 -7 11 -15 11 -9 0 -18 7 -21 15 -4 8
-10 12 -15 9 -5 -3 -9 0 -9 6 0 6 -4 9 -9 6 -5 -3 -11 1 -15 9 -3 8 -13 15
-23 15 -10 0 -31 11 -47 25 -16 13 -32 22 -36 20 -4 -3 -10 2 -14 10 -3 8 -21
22 -40 31 -34 17 -40 44 -9 44 8 0 11 5 8 10 -4 6 -3 10 2 9 25 -4 43 2 37 13
-5 7 -2 9 7 6 15 -6 42 16 32 25 -3 3 5 3 16 0 15 -4 21 -1 19 8 -2 9 4 13 16
11 11 -2 15 1 11 7 -3 6 1 11 9 11 8 0 22 7 30 16 9 8 16 12 16 7 0 -4 5 -1
10 7 5 8 14 16 20 16 5 1 15 2 21 3 5 0 7 6 4 11 -3 6 3 10 14 10 12 0 21 5
21 10 0 6 7 10 15 10 7 0 18 6 22 14 4 8 10 15 13 16 33 6 49 14 44 21 -3 5 2
9 11 9 9 0 25 9 37 20 12 10 24 17 28 15 5 -3 10 2 14 10 3 8 15 15 26 15 12
0 18 5 15 10 -3 6 1 10 9 10 9 0 16 6 16 13 0 8 4 7 10 -3 8 -13 10 -12 10 3
0 10 4 16 9 13 4 -3 16 3 26 14 10 11 24 20 32 20 7 0 13 6 13 13 0 9 2 9 9
-1 6 -10 10 -8 14 8 3 12 10 19 16 15 6 -3 11 -1 11 5 0 6 5 8 10 5 6 -3 10
-2 10 3 0 5 16 17 35 26 19 9 35 21 35 26 0 5 7 7 15 4 9 -4 15 0 15 9 0 11 7
15 20 12 11 -2 18 0 16 4 -3 4 6 13 19 19 l25 12 0 174 c0 130 -3 176 -12 179
-10 4 -10 6 0 6 9 1 12 39 12 156 0 117 -3 155 -12 155 -10 0 -10 2 0 9 8 5
12 21 10 39 l-3 32 -42 -24z"/>
<path d="M3512 3848 c-1 -17 3 -37 10 -46 8 -9 8 -13 2 -9 -9 5 -12 -80 -12
-329 0 -184 2 -333 5 -330 3 3 16 -5 29 -17 41 -39 49 -44 67 -41 9 1 14 -2
11 -8 -3 -5 3 -12 15 -15 12 -3 21 -9 21 -14 0 -5 9 -9 21 -9 11 0 17 -4 14
-10 -3 -5 3 -10 15 -10 11 0 23 -7 26 -15 4 -8 10 -12 15 -9 5 3 9 0 9 -5 0
-6 7 -11 15 -11 8 0 24 -9 35 -20 11 -11 27 -20 36 -20 8 0 12 -4 9 -10 -3 -5
3 -10 14 -10 12 0 21 -4 21 -10 0 -5 7 -10 15 -10 8 0 15 -4 15 -10 0 -5 7
-10 15 -10 8 0 15 -4 15 -9 0 -7 36 -22 49 -20 2 1 8 -6 13 -15 5 -9 14 -16
19 -16 6 0 17 -7 26 -15 8 -8 19 -13 24 -10 5 4 9 -1 9 -10 0 -9 4 -14 9 -10
5 3 16 -2 25 -11 9 -8 20 -13 24 -10 5 3 15 -4 22 -15 8 -10 19 -19 24 -19 5
0 15 -8 23 -17 8 -10 11 -12 8 -4 -5 9 1 8 19 -4 14 -10 26 -22 26 -27 0 -5 5
-6 10 -3 6 3 10 1 10 -5 0 -6 5 -8 10 -5 6 3 10 1 10 -4 0 -6 6 -11 14 -11 8
0 16 -4 18 -9 2 -5 10 -11 18 -13 8 -2 17 -6 20 -9 3 -3 15 -12 28 -21 21 -14
22 -17 7 -32 -9 -9 -21 -13 -27 -10 -7 4 -8 2 -4 -4 4 -7 2 -12 -5 -12 -6 0
-18 -8 -26 -18 -9 -10 -12 -11 -7 -2 4 8 -4 5 -18 -7 -13 -13 -30 -23 -36 -23
-7 0 -15 -7 -18 -15 -4 -8 -10 -12 -15 -9 -5 3 -12 -2 -15 -10 -3 -9 -10 -14
-14 -11 -5 3 -15 -1 -23 -9 -8 -8 -17 -12 -21 -9 -3 4 -6 1 -6 -6 0 -8 -6 -11
-17 -7 -10 4 -14 4 -11 0 9 -8 -26 -36 -69 -54 -17 -8 -30 -17 -27 -21 4 -7
-34 -22 -49 -20 -4 1 -10 -6 -13 -14 -4 -8 -15 -15 -26 -15 -10 0 -17 -4 -14
-8 3 -5 -10 -15 -29 -22 -19 -8 -35 -20 -35 -27 0 -7 -6 -10 -13 -7 -8 3 -20
-2 -27 -10 -7 -9 -16 -13 -21 -10 -5 3 -9 -2 -9 -10 0 -10 -6 -13 -15 -10 -8
4 -17 -1 -21 -10 -3 -9 -10 -13 -15 -10 -5 3 -9 0 -9 -7 0 -7 -3 -9 -6 -6 -4
4 -15 -3 -25 -14 -9 -11 -20 -20 -23 -20 -21 3 -26 0 -20 -11 5 -8 2 -9 -9 -5
-10 3 -17 3 -17 -1 0 -4 -16 -16 -35 -26 -19 -10 -32 -23 -28 -29 3 -6 1 -7
-6 -3 -15 9 -81 -39 -81 -60 0 -7 6 -14 13 -14 9 0 9 -2 0 -8 -14 -9 -16 -702
-2 -702 5 0 9 5 9 10 0 6 3 9 8 9 21 -4 42 2 38 10 -5 7 11 20 34 26 21 5 68
43 62 50 -4 4 1 5 10 2 9 -3 18 -3 20 1 5 12 88 63 88 55 0 -5 5 0 11 10 6 9
14 15 19 12 4 -3 11 2 14 11 3 8 10 12 16 9 5 -3 10 -1 10 4 0 6 6 10 13 9 6
-2 11 3 9 10 -1 6 1 11 5 10 17 -4 53 14 47 24 -4 6 -2 8 4 4 6 -3 18 1 26 10
9 8 16 12 16 8 0 -4 6 1 14 11 8 11 19 16 30 12 9 -4 14 -3 11 2 -3 5 4 12 15
16 11 4 18 11 15 16 -4 5 3 9 14 9 12 0 21 4 21 8 0 5 16 14 35 22 19 7 31 18
28 23 -4 6 0 8 10 4 9 -3 18 0 21 9 3 8 12 14 20 14 7 0 17 7 20 16 3 8 11 12
16 9 6 -4 19 2 29 14 10 11 21 18 25 14 3 -3 6 -1 6 6 0 8 7 11 15 7 8 -3 14
0 12 7 -1 7 4 11 11 9 6 -1 12 2 12 6 0 5 18 17 40 27 22 10 40 21 40 24 0 3
9 12 21 19 17 11 20 11 13 0 -4 -7 6 0 22 16 26 25 65 48 87 50 4 1 12 8 17
16 5 8 10 11 10 5 0 -5 7 -2 14 8 8 10 18 19 23 20 4 1 7 6 5 10 -1 5 1 6 6 3
5 -3 18 1 28 9 10 8 28 15 38 15 11 0 16 3 13 7 -9 9 24 32 46 33 10 0 15 4
12 10 -5 9 10 15 18 8 2 -3 17 8 51 39 8 7 25 15 39 19 15 3 25 11 24 17 -1 6
3 12 8 12 18 2 65 28 65 35 0 8 39 23 53 21 4 -1 7 6 7 14 0 8 3 14 8 14 18
-3 29 2 30 14 2 13 4 612 3 660 -1 20 -6 27 -21 27 -11 0 -20 5 -20 10 0 6 -6
10 -14 10 -8 0 -16 4 -18 9 -1 5 -10 11 -18 13 -8 2 -21 11 -28 21 -7 9 -22
17 -33 17 -11 0 -17 5 -14 10 3 6 -3 10 -13 10 -11 0 -23 7 -26 16 -3 8 -10
12 -16 9 -5 -3 -10 -1 -10 4 0 6 -7 11 -16 11 -9 0 -25 10 -35 22 -11 11 -19
18 -19 14 0 -4 -7 0 -16 8 -8 9 -19 14 -23 12 -4 -3 -13 4 -21 14 -8 10 -17
17 -22 14 -4 -3 -8 0 -8 6 0 9 -49 34 -58 30 -2 -1 -17 11 -33 26 -16 15 -29
24 -29 18 0 -5 -7 -1 -15 10 -7 10 -18 15 -23 12 -6 -3 -12 1 -16 9 -3 8 -12
15 -21 15 -8 0 -15 5 -15 10 0 6 -7 10 -15 10 -9 0 -18 7 -21 15 -4 8 -10 13
-14 10 -5 -3 -15 1 -23 9 -8 8 -17 12 -21 9 -3 -4 -6 1 -6 9 0 9 -8 15 -17 14
-10 0 -17 5 -16 11 2 7 0 12 -5 12 -22 -4 -42 2 -37 11 3 6 -3 10 -14 10 -12
0 -21 5 -21 11 0 5 -4 7 -10 4 -5 -3 -10 1 -10 9 0 9 -9 16 -20 16 -11 0 -20
5 -20 11 0 5 -4 7 -10 4 -5 -3 -10 -1 -10 6 0 7 -3 9 -6 6 -4 -4 -14 1 -23 11
-9 9 -22 18 -29 20 -7 1 -23 11 -35 22 -11 11 -27 20 -34 20 -7 0 -13 5 -13
10 0 6 -3 9 -7 9 -19 -3 -34 2 -29 9 3 5 -11 14 -30 21 -18 7 -34 17 -34 22 0
5 -7 9 -16 9 -8 0 -13 4 -10 8 3 5 -1 9 -9 10 -8 1 -22 3 -29 4 -8 1 -14 4
-13 7 1 3 -2 7 -7 8 -5 1 -12 5 -15 11 -11 17 -98 62 -105 54 -4 -4 -6 0 -4 8
2 10 -4 15 -19 14 -12 0 -20 3 -17 8 6 9 -66 55 -78 50 -5 -1 -8 2 -8 8 0 5
-16 17 -35 26 -19 9 -35 20 -35 25 0 5 -7 9 -16 9 -8 0 -13 4 -10 8 2 4 -3 8
-13 9 -12 1 -18 -7 -19 -29z"/>
</g>
</svg>
