<svg xmlns="http://www.w3.org/2000/svg" width="50" height="50"><path d="M50.063 10.438a20.57 20.57 0 0 1-5.91 1.62 10.308 10.308 0 0 0 4.523-5.687 20.648 20.648 0 0 1-6.532 2.492 10.258 10.258 0 0 0-7.503-3.246c-5.68 0-10.286 4.602-10.286 10.281 0 .805.094 1.59.27 2.344-8.547-.43-16.121-4.523-21.195-10.746a10.243 10.243 0 0 0-1.391 5.172c0 3.566 1.813 6.715 4.574 8.563a10.275 10.275 0 0 1-4.66-1.29v.13c0 4.984 3.547 9.136 8.246 10.085a10.292 10.292 0 0 1-4.644.172c1.312 4.082 5.109 7.063 9.605 7.145A20.614 20.614 0 0 1 2.39 41.87a20.23 20.23 0 0 1-2.449-.144 29.053 29.053 0 0 0 15.762 4.62c18.914 0 29.258-15.667 29.258-29.253 0-.446-.012-.895-.027-1.332a20.906 20.906 0 0 0 5.128-5.324z"/></svg>